<svg width="80" height="80" viewBox="0 0 80 80" fill="none" xmlns="http://www.w3.org/2000/svg">
<circle cx="40" cy="40" r="39" fill="white" stroke="#E7E7E7" stroke-width="2"/>
<circle cx="40" cy="40" r="34.5" fill="white" stroke="#E7E7E7"/>
<path d="M34.26 27.4H32.44V24.58H34.26V23.6H32.44V20.78H34.26V20H37.58V28.56H34.26V27.4ZM31.64 28.2H21.46V20.2H24.72V21.62H28.38V20.2H31.64V28.2ZM28.38 25.6V24.16H24.72V25.6H28.38ZM37.76 34.82V37.08H22.32V32.08H34.26V31.42H22.28V29.16H37.58V34.16H25.64V34.82H37.76ZM57.4983 33.4V36.48H40.2183V33.4H47.1383V31.48H41.1783V24.52H53.2183V23.36H41.1383V20.4H56.5583V27.34H44.5183V28.52H56.7583V31.48H50.5783V33.4H57.4983ZM37.98 43V60.08H34.84V43H37.98ZM30.6 43.08H33.68V59.78H30.6V55.86H28.84C28.5333 57.1 28.0667 58.0133 27.44 58.6C26.8267 59.1867 26.0533 59.48 25.12 59.48C23.7333 59.48 22.6933 58.84 22 57.56C21.32 56.2667 20.98 54.1933 20.98 51.34C20.98 48.4867 21.32 46.42 22 45.14C22.6933 43.8467 23.7333 43.2 25.12 43.2C26.8933 43.2 28.0867 44.2533 28.7 46.36H30.6V43.08ZM25.12 56.44C25.4933 56.44 25.76 56.04 25.92 55.24C26.08 54.44 26.16 53.14 26.16 51.34C26.16 49.54 26.08 48.24 25.92 47.44C25.76 46.64 25.4933 46.24 25.12 46.24C24.7467 46.24 24.48 46.64 24.32 47.44C24.16 48.24 24.08 49.54 24.08 51.34C24.08 53.14 24.16 54.44 24.32 55.24C24.48 56.04 24.7467 56.44 25.12 56.44ZM30.6 52.72V49.5H29.2C29.24 50.06 29.26 50.6733 29.26 51.34C29.26 51.9667 29.2533 52.4267 29.24 52.72H30.6ZM57.4983 56.38V59.48H40.2183V56.38H43.5583V52.68C42.7049 52.2 42.0449 51.6 41.5783 50.88C41.1116 50.1467 40.8783 49.34 40.8783 48.46C40.8783 47.3933 41.2049 46.4533 41.8583 45.64C42.5249 44.8133 43.4649 44.1733 44.6783 43.72C45.8916 43.2533 47.2849 43.02 48.8583 43.02C50.4316 43.02 51.8249 43.2533 53.0383 43.72C54.2516 44.1733 55.1849 44.8133 55.8383 45.64C56.5049 46.4533 56.8383 47.3933 56.8383 48.46C56.8383 49.34 56.6049 50.1467 56.1383 50.88C55.6716 51.6 55.0116 52.2 54.1583 52.68V56.38H57.4983ZM48.8583 46.06C47.5516 46.06 46.4916 46.28 45.6783 46.72C44.8649 47.16 44.4583 47.74 44.4583 48.46C44.4583 48.9267 44.6449 49.3467 45.0183 49.72C45.3916 50.08 45.9116 50.36 46.5783 50.56C47.2449 50.76 48.0049 50.86 48.8583 50.86C49.7116 50.86 50.4716 50.76 51.1383 50.56C51.8049 50.36 52.3249 50.08 52.6983 49.72C53.0716 49.3467 53.2583 48.9267 53.2583 48.46C53.2583 47.74 52.8516 47.16 52.0383 46.72C51.2249 46.28 50.1649 46.06 48.8583 46.06ZM46.9383 56.38H50.7783V53.76C50.1783 53.84 49.5383 53.88 48.8583 53.88C48.1783 53.88 47.5383 53.84 46.9383 53.76V56.38Z" fill="#E7E7E7"/>
</svg>
