<svg width="64" height="64" viewBox="0 0 64 64" fill="none" xmlns="http://www.w3.org/2000/svg">
<path d="M31.9999 58.6668C46.7275 58.6668 58.6666 46.7278 58.6666 32.0002C58.6666 17.2726 46.7275 5.3335 31.9999 5.3335C17.2723 5.3335 5.33325 17.2726 5.33325 32.0002C5.33325 46.7278 17.2723 58.6668 31.9999 58.6668Z" fill="white"/>
<path d="M23.9999 32.0002L29.3333 37.3335L39.9999 26.6668" fill="white"/>
<path d="M23.9999 32.0002L29.3333 37.3335L39.9999 26.6668M58.6666 32.0002C58.6666 46.7278 46.7275 58.6668 31.9999 58.6668C17.2723 58.6668 5.33325 46.7278 5.33325 32.0002C5.33325 17.2726 17.2723 5.3335 31.9999 5.3335C46.7275 5.3335 58.6666 17.2726 58.6666 32.0002Z" stroke="#00C471" stroke-width="4" stroke-linecap="round" stroke-linejoin="round"/>
</svg>
