<svg width="61" height="61" viewBox="0 0 61 61" fill="none" xmlns="http://www.w3.org/2000/svg">
<circle cx="30.4531" cy="30.4512" r="29" fill="white" stroke="#64CA91" stroke-width="2"/>
<circle cx="30.4531" cy="30.4512" r="25.75" fill="white" stroke="#64CA91"/>
<path d="M26.8611 20.8032H25.6291V18.6432H26.8611V17.7152H25.6291V15.5552H26.8611V14.4512H29.5171V22.2592H26.8611V20.8032ZM25.2451 21.6192C24.9038 21.7258 24.4291 21.8112 23.8211 21.8752C23.2238 21.9392 22.5945 21.9712 21.9331 21.9712H16.3331V19.8432H17.4531V16.7552H16.4291V14.6112H25.0371V16.7552H23.9811V19.7632C24.4611 19.7205 24.8825 19.6458 25.2451 19.5392V21.6192ZM20.0131 19.8432H21.4211V16.7552H20.0131V19.8432ZM23.4051 22.4832C25.3038 22.4832 26.8185 22.7125 27.9491 23.1712C29.0798 23.6298 29.6451 24.3658 29.6451 25.3792C29.6451 26.3925 29.0798 27.1285 27.9491 27.5872C26.8185 28.0458 25.3038 28.2752 23.4051 28.2752C21.5065 28.2752 19.9918 28.0458 18.8611 27.5872C17.7305 27.1285 17.1651 26.3925 17.1651 25.3792C17.1651 24.3658 17.7305 23.6298 18.8611 23.1712C19.9918 22.7125 21.5065 22.4832 23.4051 22.4832ZM23.4051 26.1792C24.4078 26.1792 25.2131 26.1152 25.8211 25.9872C26.4291 25.8592 26.7331 25.6565 26.7331 25.3792C26.7331 25.1125 26.4291 24.9152 25.8211 24.7872C25.2131 24.6592 24.4078 24.5952 23.4051 24.5952C22.4025 24.5952 21.5971 24.6592 20.9891 24.7872C20.3811 24.9152 20.0771 25.1125 20.0771 25.3792C20.0771 25.6565 20.3811 25.8592 20.9891 25.9872C21.5971 26.1152 22.4025 26.1792 23.4051 26.1792ZM46.0598 22.0672H44.4598V28.1152H41.7558V14.4512H44.4598V19.4432H46.0598V22.0672ZM32.0118 14.7712H39.7398V18.4672C39.7398 20.3018 39.4251 21.8965 38.7958 23.2512C38.1664 24.6058 37.2704 25.6512 36.1078 26.3872C34.9451 27.1125 33.5798 27.4752 32.0118 27.4752V24.9152C33.6331 24.9045 34.8651 24.3338 35.7078 23.2032C36.5611 22.0725 36.9878 20.4938 36.9878 18.4672V17.2352H32.0118V14.7712ZM25.6131 40.9472C24.8558 41.2778 23.6611 41.4432 22.0291 41.4432H16.2371V39.2672H19.4211V38.3072C18.5145 38.1258 17.8051 37.7792 17.2931 37.2672C16.7811 36.7552 16.5251 36.1205 16.5251 35.3632C16.5251 34.7552 16.6958 34.2218 17.0371 33.7632C17.3891 33.2938 17.8851 32.9365 18.5251 32.6912C19.1651 32.4352 19.9118 32.3072 20.7651 32.3072C21.6185 32.3072 22.3651 32.4352 23.0051 32.6912C23.6451 32.9365 24.1358 33.2938 24.4771 33.7632C24.8291 34.2218 25.0051 34.7552 25.0051 35.3632C25.0051 36.1205 24.7438 36.7605 24.2211 37.2832C23.7091 37.7952 22.9998 38.1365 22.0931 38.3072V39.2672C22.7865 39.2672 23.4478 39.2298 24.0771 39.1552C24.7065 39.0698 25.2185 38.9418 25.6131 38.7712V40.9472ZM30.6691 35.5552V38.0992H29.1011V42.8192H26.3971V32.4512H29.1011V35.5552H30.6691ZM19.1491 35.3632C19.1491 35.6832 19.2931 35.9445 19.5811 36.1472C19.8691 36.3392 20.2638 36.4352 20.7651 36.4352C21.2665 36.4352 21.6611 36.3392 21.9491 36.1472C22.2371 35.9445 22.3811 35.6832 22.3811 35.3632C22.3811 35.0432 22.2371 34.7872 21.9491 34.5952C21.6611 34.3925 21.2665 34.2912 20.7651 34.2912C20.2638 34.2912 19.8691 34.3925 19.5811 34.5952C19.2931 34.7872 19.1491 35.0432 19.1491 35.3632ZM19.7891 43.8272H29.2931V46.1152H17.0531V42.1312H19.7891V43.8272ZM45.4518 43.2032V45.6352H31.6278V43.2032H34.5718V41.5712H32.3958V36.0512H42.0278V35.1232H32.3638V32.7712H44.6998V38.2912H35.0677V39.2192H44.8598V41.5712H42.5078V43.2032H45.4518ZM37.2758 43.2032H39.8038V41.5712H37.2758V43.2032Z" fill="#64CA91"/>
</svg>
