<svg width="30" height="30" viewBox="0 0 30 30" fill="none" xmlns="http://www.w3.org/2000/svg">
<rect width="30" height="30" rx="15" fill="#111111"/>
<path d="M15.479 7.37112C14.1447 7.37136 12.8354 7.73382 11.6909 8.41984C10.5463 9.10585 9.60952 10.0897 8.98031 11.2664C8.3511 12.4431 8.05311 13.7685 8.11813 15.1013C8.18316 16.4341 8.60875 17.7242 9.34952 18.8341C10.0903 19.944 11.1184 20.8319 12.3243 21.4033C13.5302 21.9746 14.8685 22.2079 16.1966 22.0783C17.5246 21.9486 18.7926 21.4609 19.8652 20.6671C20.9378 19.8733 21.7748 18.8033 22.2869 17.5711C22.5382 16.9667 21.936 16.3593 21.3301 16.6055C20.2917 17.0262 19.1387 17.0696 18.0715 16.7282C17.0044 16.3868 16.0907 15.6822 15.4892 14.737C14.8877 13.7917 14.6365 12.6655 14.7793 11.5543C14.922 10.443 15.4498 9.41691 16.2707 8.65441L16.3274 8.59544C16.7336 8.13107 16.4107 7.37701 15.7687 7.37701H15.5726L15.5225 7.37259L15.479 7.37112Z" fill="white"/>
</svg>
