<svg width="8" height="8" viewBox="0 0 8 8" fill="none" xmlns="http://www.w3.org/2000/svg">
<rect width="8" height="8" rx="4" fill="#111111"/>
<path d="M3.99922 4.34922L2.77422 5.57422C2.72839 5.62005 2.67005 5.64297 2.59922 5.64297C2.52839 5.64297 2.47005 5.62005 2.42422 5.57422C2.37839 5.52839 2.35547 5.47005 2.35547 5.39922C2.35547 5.32839 2.37839 5.27005 2.42422 5.22422L3.64922 3.99922L2.42422 2.77422C2.37839 2.72839 2.35547 2.67005 2.35547 2.59922C2.35547 2.52839 2.37839 2.47005 2.42422 2.42422C2.47005 2.37839 2.52839 2.35547 2.59922 2.35547C2.67005 2.35547 2.72839 2.37839 2.77422 2.42422L3.99922 3.64922L5.22422 2.42422C5.27005 2.37839 5.32839 2.35547 5.39922 2.35547C5.47005 2.35547 5.52839 2.37839 5.57422 2.42422C5.62005 2.47005 5.64297 2.52839 5.64297 2.59922C5.64297 2.67005 5.62005 2.72839 5.57422 2.77422L4.34922 3.99922L5.57422 5.22422C5.62005 5.27005 5.64297 5.32839 5.64297 5.39922C5.64297 5.47005 5.62005 5.52839 5.57422 5.57422C5.52839 5.62005 5.47005 5.64297 5.39922 5.64297C5.32839 5.64297 5.27005 5.62005 5.22422 5.57422L3.99922 4.34922Z" fill="white"/>
</svg>
