<svg width="80" height="80" viewBox="0 0 80 80" fill="none" xmlns="http://www.w3.org/2000/svg">
<circle cx="40" cy="40" r="39" fill="white" stroke="#E7E7E7" stroke-width="2"/>
<circle cx="40" cy="40" r="34.5" fill="white" stroke="#E7E7E7"/>
<path d="M27.08 32.2C26.4133 33.0533 25.58 33.7333 24.58 34.24C23.5933 34.7333 22.4933 34.9867 21.28 35V31.98C22.24 31.9267 23.06 31.5867 23.74 30.96C24.4333 30.32 24.9 29.5133 25.14 28.54H21.64V25.5H25.2V23.78H28.64V25.5H32.2V28.54H28.62C28.58 28.8467 28.5067 29.1933 28.4 29.58L33.04 32.52L31.22 34.98L27.08 32.2ZM37.54 24V41.08H34.16V24H37.54ZM28.76 37.18C29.6133 37.18 30.4333 37.1267 31.22 37.02C32.02 36.9 32.6733 36.7267 33.18 36.5V39.6C32.6733 39.8267 32.0267 39.9933 31.24 40.1C30.4533 40.22 29.6067 40.28 28.7 40.28H20.98V37.18H25.18V34.64H28.54V37.18H28.76ZM53.0383 27.54H41.1183V24.4H56.5583V35.66H53.0383V27.54ZM57.4983 37.32V40.48H40.2183V37.32H45.7783V30.64H49.2783V37.32H57.4983ZM37.98 47V64.08H34.84V47H37.98ZM30.6 47.08H33.68V63.78H30.6V59.86H28.84C28.5333 61.1 28.0667 62.0133 27.44 62.6C26.8267 63.1867 26.0533 63.48 25.12 63.48C23.7333 63.48 22.6933 62.84 22 61.56C21.32 60.2667 20.98 58.1933 20.98 55.34C20.98 52.4867 21.32 50.42 22 49.14C22.6933 47.8467 23.7333 47.2 25.12 47.2C26.8933 47.2 28.0867 48.2533 28.7 50.36H30.6V47.08ZM25.12 60.44C25.4933 60.44 25.76 60.04 25.92 59.24C26.08 58.44 26.16 57.14 26.16 55.34C26.16 53.54 26.08 52.24 25.92 51.44C25.76 50.64 25.4933 50.24 25.12 50.24C24.7467 50.24 24.48 50.64 24.32 51.44C24.16 52.24 24.08 53.54 24.08 55.34C24.08 57.14 24.16 58.44 24.32 59.24C24.48 60.04 24.7467 60.44 25.12 60.44ZM30.6 56.72V53.5H29.2C29.24 54.06 29.26 54.6733 29.26 55.34C29.26 55.9667 29.2533 56.4267 29.24 56.72H30.6ZM57.4983 60.38V63.48H40.2183V60.38H43.5583V56.68C42.7049 56.2 42.0449 55.6 41.5783 54.88C41.1116 54.1467 40.8783 53.34 40.8783 52.46C40.8783 51.3933 41.2049 50.4533 41.8583 49.64C42.5249 48.8133 43.4649 48.1733 44.6783 47.72C45.8916 47.2533 47.2849 47.02 48.8583 47.02C50.4316 47.02 51.8249 47.2533 53.0383 47.72C54.2516 48.1733 55.1849 48.8133 55.8383 49.64C56.5049 50.4533 56.8383 51.3933 56.8383 52.46C56.8383 53.34 56.6049 54.1467 56.1383 54.88C55.6716 55.6 55.0116 56.2 54.1583 56.68V60.38H57.4983ZM48.8583 50.06C47.5516 50.06 46.4916 50.28 45.6783 50.72C44.8649 51.16 44.4583 51.74 44.4583 52.46C44.4583 52.9267 44.6449 53.3467 45.0183 53.72C45.3916 54.08 45.9116 54.36 46.5783 54.56C47.2449 54.76 48.0049 54.86 48.8583 54.86C49.7116 54.86 50.4716 54.76 51.1383 54.56C51.8049 54.36 52.3249 54.08 52.6983 53.72C53.0716 53.3467 53.2583 52.9267 53.2583 52.46C53.2583 51.74 52.8516 51.16 52.0383 50.72C51.2249 50.28 50.1649 50.06 48.8583 50.06ZM46.9383 60.38H50.7783V57.76C50.1783 57.84 49.5383 57.88 48.8583 57.88C48.1783 57.88 47.5383 57.84 46.9383 57.76V60.38Z" fill="#E7E7E7"/>
<path d="M39.8578 12.0928C39.8709 12.0649 39.8912 12.0415 39.9164 12.0251C39.9416 12.0087 39.9706 12 40.0003 12C40.0299 12 40.0589 12.0087 40.0841 12.0251C40.1093 12.0415 40.1296 12.0649 40.1428 12.0928L40.8357 13.5648C40.8813 13.6617 40.9487 13.7455 41.0321 13.809C41.1154 13.8726 41.2122 13.914 41.3142 13.9297L42.8638 14.1675C42.8932 14.172 42.9208 14.185 42.9435 14.205C42.9661 14.2251 42.983 14.2514 42.9922 14.281C43.0014 14.3106 43.0025 14.3423 42.9954 14.3725C42.9883 14.4027 42.9732 14.4302 42.952 14.4519L41.8313 15.5964C41.7574 15.672 41.7021 15.7652 41.6702 15.8681C41.6382 15.971 41.6306 16.0806 41.648 16.1872L41.9126 17.8043C41.9178 17.835 41.9146 17.8667 41.9034 17.8957C41.8923 17.9247 41.8736 17.9498 41.8495 17.9682C41.8254 17.9865 41.7968 17.9974 41.7671 17.9996C41.7373 18.0018 41.7076 17.9951 41.6813 17.9804L40.296 17.2166C40.2048 17.1663 40.1032 17.1401 40.0001 17.1401C39.897 17.1401 39.7955 17.1663 39.7042 17.2166L38.3192 17.9804C38.2929 17.995 38.2632 18.0016 38.2336 17.9994C38.2039 17.9972 38.1754 17.9863 38.1513 17.9679C38.1273 17.9496 38.1086 17.9245 38.0974 17.8956C38.0863 17.8666 38.0831 17.835 38.0882 17.8043L38.3525 16.1876C38.37 16.0808 38.3624 15.9712 38.3305 15.8683C38.2986 15.7653 38.2432 15.672 38.1692 15.5964L37.0485 14.4522C37.0271 14.4305 37.0119 14.403 37.0047 14.3727C36.9975 14.3424 36.9986 14.3106 37.0078 14.2808C37.017 14.2511 37.0339 14.2247 37.0567 14.2047C37.0795 14.1846 37.1072 14.1716 37.1367 14.1672L38.6861 13.9297C38.7882 13.9141 38.8851 13.8728 38.9685 13.8092C39.052 13.7456 39.1195 13.6617 39.1651 13.5648L39.8578 12.0928Z" fill="#E7E7E7" stroke="#E7E7E7" stroke-width="2" stroke-linecap="round" stroke-linejoin="round"/>
<path d="M50.8578 12.0928C50.8709 12.0649 50.8912 12.0415 50.9164 12.0251C50.9416 12.0087 50.9706 12 51.0003 12C51.0299 12 51.0589 12.0087 51.0841 12.0251C51.1093 12.0415 51.1296 12.0649 51.1428 12.0928L51.8357 13.5648C51.8813 13.6617 51.9487 13.7455 52.0321 13.809C52.1154 13.8726 52.2122 13.914 52.3142 13.9297L53.8638 14.1675C53.8932 14.172 53.9208 14.185 53.9435 14.205C53.9661 14.2251 53.983 14.2514 53.9922 14.281C54.0014 14.3106 54.0025 14.3423 53.9954 14.3725C53.9883 14.4027 53.9732 14.4302 53.952 14.4519L52.8313 15.5964C52.7574 15.672 52.7021 15.7652 52.6702 15.8681C52.6382 15.971 52.6306 16.0806 52.648 16.1872L52.9126 17.8043C52.9178 17.835 52.9146 17.8667 52.9034 17.8957C52.8923 17.9247 52.8736 17.9498 52.8495 17.9682C52.8254 17.9865 52.7968 17.9974 52.7671 17.9996C52.7373 18.0018 52.7076 17.9951 52.6813 17.9804L51.296 17.2166C51.2048 17.1663 51.1032 17.1401 51.0001 17.1401C50.897 17.1401 50.7955 17.1663 50.7042 17.2166L49.3192 17.9804C49.2929 17.995 49.2632 18.0016 49.2336 17.9994C49.2039 17.9972 49.1754 17.9863 49.1513 17.9679C49.1273 17.9496 49.1086 17.9245 49.0974 17.8956C49.0863 17.8666 49.0831 17.835 49.0882 17.8043L49.3525 16.1876C49.37 16.0808 49.3624 15.9712 49.3305 15.8683C49.2986 15.7653 49.2432 15.672 49.1692 15.5964L48.0485 14.4522C48.0271 14.4305 48.0119 14.403 48.0047 14.3727C47.9975 14.3424 47.9986 14.3106 48.0078 14.2808C48.017 14.2511 48.0339 14.2247 48.0567 14.2047C48.0795 14.1846 48.1072 14.1716 48.1367 14.1672L49.6861 13.9297C49.7882 13.9141 49.8851 13.8728 49.9685 13.8092C50.052 13.7456 50.1195 13.6617 50.1651 13.5648L50.8578 12.0928Z" fill="#E7E7E7" stroke="#E7E7E7" stroke-width="2" stroke-linecap="round" stroke-linejoin="round"/>
<path d="M28.8578 12.0928C28.8709 12.0649 28.8912 12.0415 28.9164 12.0251C28.9416 12.0087 28.9706 12 29.0003 12C29.0299 12 29.0589 12.0087 29.0841 12.0251C29.1093 12.0415 29.1296 12.0649 29.1428 12.0928L29.8357 13.5648C29.8813 13.6617 29.9487 13.7455 30.0321 13.809C30.1154 13.8726 30.2122 13.914 30.3142 13.9297L31.8638 14.1675C31.8932 14.172 31.9208 14.185 31.9435 14.205C31.9661 14.2251 31.983 14.2514 31.9922 14.281C32.0014 14.3106 32.0025 14.3423 31.9954 14.3725C31.9883 14.4027 31.9732 14.4302 31.952 14.4519L30.8313 15.5964C30.7574 15.672 30.7021 15.7652 30.6702 15.8681C30.6382 15.971 30.6306 16.0806 30.648 16.1872L30.9126 17.8043C30.9178 17.835 30.9146 17.8667 30.9034 17.8957C30.8923 17.9247 30.8736 17.9498 30.8495 17.9682C30.8254 17.9865 30.7968 17.9974 30.7671 17.9996C30.7373 18.0018 30.7076 17.9951 30.6813 17.9804L29.296 17.2166C29.2048 17.1663 29.1032 17.1401 29.0001 17.1401C28.897 17.1401 28.7955 17.1663 28.7042 17.2166L27.3192 17.9804C27.2929 17.995 27.2632 18.0016 27.2336 17.9994C27.2039 17.9972 27.1754 17.9863 27.1513 17.9679C27.1273 17.9496 27.1086 17.9245 27.0974 17.8956C27.0863 17.8666 27.0831 17.835 27.0882 17.8043L27.3525 16.1876C27.37 16.0808 27.3624 15.9712 27.3305 15.8683C27.2986 15.7653 27.2432 15.672 27.1692 15.5964L26.0485 14.4522C26.0271 14.4305 26.0119 14.403 26.0047 14.3727C25.9975 14.3424 25.9986 14.3106 26.0078 14.2808C26.017 14.2511 26.0339 14.2247 26.0567 14.2047C26.0795 14.1846 26.1072 14.1716 26.1367 14.1672L27.6861 13.9297C27.7882 13.9141 27.8851 13.8728 27.9685 13.8092C28.052 13.7456 28.1195 13.6617 28.1651 13.5648L28.8578 12.0928Z" fill="#E7E7E7" stroke="#E7E7E7" stroke-width="2" stroke-linecap="round" stroke-linejoin="round"/>
</svg>
