<svg width="72" height="26" viewBox="0 0 72 26" fill="none" xmlns="http://www.w3.org/2000/svg">
<path d="M17.1758 4.09766C17.2148 3.95703 17.2578 3.84375 17.3047 3.75781C17.3516 3.66406 17.457 3.59766 17.6211 3.55859L21.0781 2.76172C21.0938 2.76172 21.1133 2.75781 21.1367 2.75C21.1602 2.74219 21.1797 2.73828 21.1953 2.73828C21.3047 2.73828 21.3789 2.78516 21.418 2.87891C21.4648 2.97266 21.4883 3.0625 21.4883 3.14844C21.4883 3.16406 21.4844 3.19531 21.4766 3.24219C21.4766 3.28906 21.4727 3.32031 21.4648 3.33594L16.6133 18.0781C16.4883 18.3984 16.3828 18.6602 16.2969 18.8633C16.2188 19.0586 16.1367 19.2227 16.0508 19.3555C15.9727 19.4805 15.8789 19.5859 15.7695 19.6719C15.668 19.7578 15.5273 19.8438 15.3477 19.9297C15.1758 20.0156 14.957 20.1133 14.6914 20.2227C14.4258 20.3398 14.0898 20.4961 13.6836 20.6914C13.543 20.7617 13.4336 20.7969 13.3555 20.7969C13.2305 20.7969 13.1367 20.75 13.0742 20.6562C13.0117 20.5625 12.9609 20.457 12.9219 20.3398L10.918 13.2031L8.41016 18.3711C8.37109 18.4648 8.28125 18.5898 8.14062 18.7461C8 18.9023 7.83984 19.0625 7.66016 19.2266C7.48828 19.3906 7.3125 19.5508 7.13281 19.707C6.96094 19.8555 6.82031 19.9766 6.71094 20.0703C6.60938 20.1562 6.5 20.2422 6.38281 20.3281C6.27344 20.4141 6.16016 20.4922 6.04297 20.5625C5.92578 20.6328 5.8125 20.6875 5.70312 20.7266C5.60156 20.7734 5.50391 20.7969 5.41016 20.7969C5.20703 20.7969 5.07422 20.6836 5.01172 20.457L0.464844 4.42578C0.449219 4.36328 0.429688 4.30078 0.40625 4.23828C0.390625 4.17578 0.382812 4.11719 0.382812 4.0625C0.382812 3.86719 0.429688 3.70312 0.523438 3.57031C0.617188 3.4375 0.78125 3.32422 1.01562 3.23047C1.25 3.13672 1.5625 3.0625 1.95312 3.00781C2.34375 2.94531 2.83984 2.89453 3.44141 2.85547C3.72266 2.81641 3.95703 2.78906 4.14453 2.77344C4.33984 2.75781 4.50391 2.75 4.63672 2.75C4.86328 2.75 5.01172 2.78516 5.08203 2.85547C5.15234 2.92578 5.21484 3.04297 5.26953 3.20703L7.68359 12.5L9.6875 9.05469L8.87891 5.52734C8.83203 5.33984 8.8125 5.19922 8.82031 5.10547C8.82031 4.92578 8.86719 4.78125 8.96094 4.67188C9.05469 4.5625 9.21094 4.47266 9.42969 4.40234C9.64844 4.33203 9.93359 4.26953 10.2852 4.21484C10.6445 4.16016 11.082 4.09766 11.5977 4.02734C11.8242 3.99609 12.0195 3.97266 12.1836 3.95703C12.3477 3.94141 12.4883 3.93359 12.6055 3.93359C12.8398 3.93359 13 3.96875 13.0859 4.03906C13.1719 4.10938 13.2344 4.22266 13.2734 4.37891L14.8672 11.5977L17.1758 4.09766ZM21.875 15.0312C21.9766 13.9609 22.0781 12.9023 22.1797 11.8555C22.2812 10.8086 22.3711 9.73438 22.4492 8.63281C22.4648 8.375 22.4883 8.19922 22.5195 8.10547C22.5586 8.00391 22.6484 7.9375 22.7891 7.90625C23.4531 7.77344 24.1484 7.63672 24.875 7.49609C25.6016 7.34766 26.3047 7.16016 26.9844 6.93359C27.0078 6.92578 27.043 6.92188 27.0898 6.92188C27.1758 6.92188 27.2188 6.95312 27.2188 7.01562L26.1641 18.4297C26.1406 18.6875 26.1133 18.8672 26.082 18.9688C26.0508 19.0625 25.9648 19.125 25.8242 19.1562C25.1602 19.3594 24.4883 19.5859 23.8086 19.8359C23.1289 20.0859 22.4102 20.3398 21.6523 20.5977C21.6289 20.6055 21.5938 20.6094 21.5469 20.6094C21.4609 20.6094 21.418 20.5703 21.418 20.4922C21.418 20.4844 21.4258 20.3789 21.4414 20.1758C21.457 19.9727 21.4766 19.7109 21.5 19.3906C21.5312 19.0703 21.5625 18.7109 21.5938 18.3125C21.625 17.9141 21.6562 17.5156 21.6875 17.1172C21.7266 16.7188 21.7617 16.3359 21.793 15.9688C21.8242 15.6016 21.8516 15.2891 21.875 15.0312ZM22.7539 5.67969C22.7773 5.34375 22.793 5.08594 22.8008 4.90625C22.8164 4.72656 22.8281 4.59375 22.8359 4.50781C22.8438 4.41406 22.8477 4.35547 22.8477 4.33203C22.8477 4.30859 22.8477 4.29297 22.8477 4.28516C22.8555 4.26953 22.8594 4.24609 22.8594 4.21484C22.8672 4.17578 22.875 4.10156 22.8828 3.99219C22.8906 3.875 22.9023 3.70703 22.918 3.48828C22.9336 3.26953 22.957 2.96875 22.9883 2.58594C23.0039 2.32812 23.0273 2.15234 23.0586 2.05859C23.0977 1.95703 23.1875 1.89062 23.3281 1.85938C23.9922 1.72656 24.6875 1.58984 25.4141 1.44922C26.1406 1.30078 26.8438 1.11328 27.5234 0.886719C27.5469 0.878906 27.582 0.875 27.6289 0.875C27.6523 0.921875 27.6836 0.953125 27.7227 0.96875L27.7578 0.992188L27.5 4.20312C27.4766 4.46094 27.4453 4.64062 27.4062 4.74219C27.375 4.84375 27.293 4.90625 27.1602 4.92969C26.4961 5.05469 25.8242 5.19141 25.1445 5.33984C24.4648 5.48828 23.7461 5.63672 22.9883 5.78516C22.9648 5.79297 22.9297 5.79688 22.8828 5.79688C22.7969 5.79688 22.7539 5.75781 22.7539 5.67969ZM33.6875 16.1797C33.7656 16.3359 33.875 16.4961 34.0156 16.6602C34.1641 16.8164 34.332 16.9609 34.5195 17.0938C34.7148 17.2266 34.9258 17.3359 35.1523 17.4219C35.3789 17.5 35.6133 17.5391 35.8555 17.5391C36.1914 17.5391 36.5078 17.4102 36.8047 17.1523C37.1016 16.8867 37.3594 16.5352 37.5781 16.0977C37.8047 15.6523 37.9805 15.1484 38.1055 14.5859C38.2305 14.0156 38.293 13.4258 38.293 12.8164C38.293 12.4414 38.2578 12.0859 38.1875 11.75C38.125 11.4141 38.0234 11.1211 37.8828 10.8711C37.7422 10.6211 37.5586 10.4219 37.332 10.2734C37.1133 10.125 36.8477 10.0508 36.5352 10.0508C36.0273 10.0508 35.5625 10.1992 35.1406 10.4961C34.7188 10.793 34.3633 11.1719 34.0742 11.6328L33.6875 16.1797ZM29.3281 20.5742C29.2188 20.5977 29.1328 20.6094 29.0703 20.6094C28.8203 20.6094 28.6953 20.4609 28.6953 20.1641C28.6953 20.125 28.6953 20.0859 28.6953 20.0469C28.7031 20.0078 28.7109 19.9648 28.7188 19.918L30.0781 3.33594C30.0781 3.3125 30.0781 3.28906 30.0781 3.26562C30.0859 3.24219 30.0898 3.22266 30.0898 3.20703C30.0898 3.17578 30.0859 3.14844 30.0781 3.125C30.0781 3.10156 30.0781 3.08203 30.0781 3.06641C30.0781 2.99609 30.1016 2.94141 30.1484 2.90234C30.2031 2.85547 30.3359 2.80469 30.5469 2.75L33.8398 1.96484C33.9258 1.94922 34.0391 1.91406 34.1797 1.85938C34.3203 1.80469 34.457 1.77734 34.5898 1.77734C34.6914 1.77734 34.7852 1.80078 34.8711 1.84766C34.9648 1.89453 35.0117 1.98438 35.0117 2.11719C35.0117 2.13281 35.0078 2.14844 35 2.16406C35 2.17969 35 2.19531 35 2.21094C34.9922 2.25 34.9727 2.42188 34.9414 2.72656C34.9102 3.03125 34.875 3.40234 34.8359 3.83984C34.7969 4.26953 34.7539 4.73438 34.707 5.23438C34.6602 5.72656 34.6172 6.19141 34.5781 6.62891C34.5391 7.05859 34.5039 7.42578 34.4727 7.73047C34.4414 8.03516 34.4219 8.20703 34.4141 8.24609C34.9844 7.87109 35.5742 7.55859 36.1836 7.30859C36.793 7.05078 37.4023 6.92188 38.0117 6.92188C38.8164 6.92188 39.5117 7.08984 40.0977 7.42578C40.6836 7.75391 41.168 8.19531 41.5508 8.75C41.9336 9.29688 42.2148 9.92969 42.3945 10.6484C42.582 11.3672 42.6758 12.1094 42.6758 12.875C42.6758 13.4922 42.6172 14.1133 42.5 14.7383C42.3906 15.3555 42.2266 15.9492 42.0078 16.5195C41.7969 17.0898 41.5273 17.625 41.1992 18.125C40.8789 18.625 40.5078 19.0586 40.0859 19.4258C39.6719 19.793 39.207 20.082 38.6914 20.293C38.1758 20.5039 37.6172 20.6094 37.0156 20.6094C36.2891 20.6094 35.625 20.4492 35.0234 20.1289C34.4219 19.8086 33.8633 19.3945 33.3477 18.8867C33.332 19.0742 33.3203 19.2227 33.3125 19.332C33.3047 19.4414 33.2773 19.5273 33.2305 19.5898C33.1914 19.6445 33.1289 19.6914 33.043 19.7305C32.957 19.7617 32.8281 19.7969 32.6562 19.8359C32.5703 19.8594 32.418 19.8984 32.1992 19.9531C31.9883 20 31.7305 20.0547 31.4258 20.1172C31.1289 20.1875 30.7969 20.2617 30.4297 20.3398C30.0703 20.418 29.7031 20.4961 29.3281 20.5742ZM49.1562 16.1797C49.2344 16.3359 49.3438 16.4961 49.4844 16.6602C49.6328 16.8164 49.8008 16.9609 49.9883 17.0938C50.1836 17.2266 50.3945 17.3359 50.6211 17.4219C50.8477 17.5 51.082 17.5391 51.3242 17.5391C51.6602 17.5391 51.9766 17.4102 52.2734 17.1523C52.5703 16.8867 52.8281 16.5352 53.0469 16.0977C53.2734 15.6523 53.4492 15.1484 53.5742 14.5859C53.6992 14.0156 53.7617 13.4258 53.7617 12.8164C53.7617 12.4414 53.7266 12.0859 53.6562 11.75C53.5938 11.4141 53.4922 11.1211 53.3516 10.8711C53.2109 10.6211 53.0273 10.4219 52.8008 10.2734C52.582 10.125 52.3164 10.0508 52.0039 10.0508C51.4961 10.0508 51.0312 10.1992 50.6094 10.4961C50.1875 10.793 49.832 11.1719 49.543 11.6328L49.1562 16.1797ZM44.7969 20.5742C44.6875 20.5977 44.6016 20.6094 44.5391 20.6094C44.2891 20.6094 44.1641 20.4609 44.1641 20.1641C44.1641 20.125 44.1641 20.0859 44.1641 20.0469C44.1719 20.0078 44.1797 19.9648 44.1875 19.918L45.5469 3.33594C45.5469 3.3125 45.5469 3.28906 45.5469 3.26562C45.5547 3.24219 45.5586 3.22266 45.5586 3.20703C45.5586 3.17578 45.5547 3.14844 45.5469 3.125C45.5469 3.10156 45.5469 3.08203 45.5469 3.06641C45.5469 2.99609 45.5703 2.94141 45.6172 2.90234C45.6719 2.85547 45.8047 2.80469 46.0156 2.75L49.3086 1.96484C49.3945 1.94922 49.5078 1.91406 49.6484 1.85938C49.7891 1.80469 49.9258 1.77734 50.0586 1.77734C50.1602 1.77734 50.2539 1.80078 50.3398 1.84766C50.4336 1.89453 50.4805 1.98438 50.4805 2.11719C50.4805 2.13281 50.4766 2.14844 50.4688 2.16406C50.4688 2.17969 50.4688 2.19531 50.4688 2.21094C50.4609 2.25 50.4414 2.42188 50.4102 2.72656C50.3789 3.03125 50.3438 3.40234 50.3047 3.83984C50.2656 4.26953 50.2227 4.73438 50.1758 5.23438C50.1289 5.72656 50.0859 6.19141 50.0469 6.62891C50.0078 7.05859 49.9727 7.42578 49.9414 7.73047C49.9102 8.03516 49.8906 8.20703 49.8828 8.24609C50.4531 7.87109 51.043 7.55859 51.6523 7.30859C52.2617 7.05078 52.8711 6.92188 53.4805 6.92188C54.2852 6.92188 54.9805 7.08984 55.5664 7.42578C56.1523 7.75391 56.6367 8.19531 57.0195 8.75C57.4023 9.29688 57.6836 9.92969 57.8633 10.6484C58.0508 11.3672 58.1445 12.1094 58.1445 12.875C58.1445 13.4922 58.0859 14.1133 57.9688 14.7383C57.8594 15.3555 57.6953 15.9492 57.4766 16.5195C57.2656 17.0898 56.9961 17.625 56.668 18.125C56.3477 18.625 55.9766 19.0586 55.5547 19.4258C55.1406 19.793 54.6758 20.082 54.1602 20.293C53.6445 20.5039 53.0859 20.6094 52.4844 20.6094C51.7578 20.6094 51.0938 20.4492 50.4922 20.1289C49.8906 19.8086 49.332 19.3945 48.8164 18.8867C48.8008 19.0742 48.7891 19.2227 48.7812 19.332C48.7734 19.4414 48.7461 19.5273 48.6992 19.5898C48.6602 19.6445 48.5977 19.6914 48.5117 19.7305C48.4258 19.7617 48.2969 19.7969 48.125 19.8359C48.0391 19.8594 47.8867 19.8984 47.668 19.9531C47.457 20 47.1992 20.0547 46.8945 20.1172C46.5977 20.1875 46.2656 20.2617 45.8984 20.3398C45.5391 20.418 45.1719 20.4961 44.7969 20.5742ZM64.3906 25.3438C64.375 25.375 64.3555 25.3984 64.332 25.4141C64.3164 25.4375 64.2852 25.4492 64.2383 25.4492C64.1914 25.4492 64.1562 25.4453 64.1328 25.4375C63.8516 25.3359 63.5859 25.25 63.3359 25.1797C63.0859 25.1094 62.8359 25.043 62.5859 24.9805C62.3438 24.9258 62.0938 24.8711 61.8359 24.8164C61.5781 24.7695 61.3047 24.7148 61.0156 24.6523C60.9375 24.6367 60.875 24.6094 60.8281 24.5703C60.7891 24.5391 60.7695 24.4805 60.7695 24.3945C60.7695 24.3711 60.7812 24.3125 60.8047 24.2188C60.8359 24.1328 60.9062 23.9492 61.0156 23.668C61.125 23.3945 61.293 22.9922 61.5195 22.4609C61.7461 21.9375 62.0586 21.2305 62.457 20.3398C62.3398 19.9492 62.207 19.4805 62.0586 18.9336C61.9102 18.3867 61.75 17.7891 61.5781 17.1406C61.4141 16.4922 61.2422 15.8086 61.0625 15.0898C60.8828 14.3633 60.6992 13.6328 60.5117 12.8984C60.332 12.1562 60.1484 11.4258 59.9609 10.707C59.7812 9.98047 59.6055 9.28906 59.4336 8.63281C59.3789 8.50781 59.3477 8.40625 59.3398 8.32812C59.332 8.24219 59.3281 8.17188 59.3281 8.11719C59.3281 8.00781 59.3906 7.9375 59.5156 7.90625C60.125 7.77344 60.7578 7.63672 61.4141 7.49609C62.0703 7.34766 62.6914 7.16016 63.2773 6.93359C63.3008 6.92578 63.3359 6.92188 63.3828 6.92188C63.4844 6.92188 63.5391 6.96094 63.5469 7.03906L64.9766 14.9141C65.0078 14.8203 65.0664 14.6523 65.1523 14.4102C65.2461 14.1602 65.3516 13.8633 65.4688 13.5195C65.5938 13.1758 65.7305 12.7969 65.8789 12.3828C66.0273 11.9688 66.1797 11.5469 66.3359 11.1172C66.4922 10.6875 66.6445 10.2617 66.793 9.83984C66.9492 9.41016 67.0938 9.01172 67.2266 8.64453C67.3594 8.27734 67.4727 7.95312 67.5664 7.67188C67.668 7.39062 67.7461 7.17969 67.8008 7.03906C67.832 6.96094 67.8906 6.92188 67.9766 6.92188C68 6.92188 68.0156 6.92578 68.0234 6.93359C68.0312 6.93359 68.0469 6.93359 68.0703 6.93359C68.6562 7.16016 69.2578 7.34766 69.875 7.49609C70.4922 7.63672 71.1055 7.77344 71.7148 7.90625C71.8633 7.9375 71.9375 8.02344 71.9375 8.16406C71.9375 8.26562 71.8906 8.42188 71.7969 8.63281L66.9688 19.543L64.3906 25.3438Z" fill="#4E4E4E"/>
</svg>
