<svg width="80" height="80" viewBox="0 0 80 80" fill="none" xmlns="http://www.w3.org/2000/svg">
<circle cx="40" cy="40" r="39" fill="white" stroke="#FF5955" stroke-width="2"/>
<circle cx="40" cy="40" r="34.5" fill="white" stroke="#FF5955"/>
<path d="M20.02 38.52C19.1 38.9733 18.0067 39.3267 16.74 39.58C15.4733 39.82 14.1467 39.9533 12.76 39.98V37.54C13.9333 37.5133 15.0533 37.4 16.12 37.2C17.1867 37 18 36.7333 18.56 36.4H12.96V34H28.28V36.4H22.44L22.32 36.62L28.7 37.72L28.04 40.06L20.02 38.52ZM29.26 40.5V42.9H11.98V40.5H18.94V39.42H22.3V40.5H29.26ZM22.32 43.84H28.4V46.06H12.84V43.84H18.92V43.3H22.32V43.84ZM20.62 46.44C22.98 46.44 24.76 46.6267 25.96 47C27.16 47.36 27.76 47.98 27.76 48.86C27.76 49.74 27.16 50.36 25.96 50.72C24.76 51.0933 22.98 51.28 20.62 51.28C18.26 51.28 16.48 51.0933 15.28 50.72C14.08 50.36 13.48 49.74 13.48 48.86C13.48 47.98 14.08 47.36 15.28 47C16.48 46.6267 18.26 46.44 20.62 46.44ZM20.62 49.18C21.8867 49.18 22.82 49.1533 23.42 49.1C24.0333 49.06 24.34 48.98 24.34 48.86C24.34 48.7267 24.0267 48.6333 23.4 48.58C22.7867 48.5267 21.86 48.5 20.62 48.5C19.38 48.5 18.4467 48.5267 17.82 48.58C17.2067 48.6333 16.9 48.7267 16.9 48.86C16.9 48.98 17.2 49.06 17.8 49.1C18.4133 49.1533 19.3533 49.18 20.62 49.18ZM49.2583 43.52H47.2583V51.08H43.8783V34H47.2583V40.24H49.2583V43.52ZM36.8383 34.2C38.4916 34.2 39.7849 34.88 40.7183 36.24C41.6516 37.5867 42.1183 39.62 42.1183 42.34C42.1183 45.06 41.6516 47.1 40.7183 48.46C39.7849 49.8067 38.4916 50.48 36.8383 50.48C35.1849 50.48 33.8849 49.8067 32.9383 48.46C32.0049 47.1 31.5383 45.06 31.5383 42.34C31.5383 39.62 32.0049 37.5867 32.9383 36.24C33.8849 34.88 35.1849 34.2 36.8383 34.2ZM36.8383 47.38C38.1316 47.38 38.7783 45.7 38.7783 42.34C38.7783 38.98 38.1316 37.3 36.8383 37.3C35.5316 37.3 34.8783 38.98 34.8783 42.34C34.8783 45.7 35.5316 47.38 36.8383 47.38ZM67.7366 47.38V50.48H50.4566V47.38H53.7966V43.68C52.9432 43.2 52.2832 42.6 51.8166 41.88C51.3499 41.1467 51.1166 40.34 51.1166 39.46C51.1166 38.3933 51.4432 37.4533 52.0966 36.64C52.7632 35.8133 53.7032 35.1733 54.9166 34.72C56.1299 34.2533 57.5232 34.02 59.0966 34.02C60.6699 34.02 62.0632 34.2533 63.2766 34.72C64.4899 35.1733 65.4232 35.8133 66.0766 36.64C66.7432 37.4533 67.0766 38.3933 67.0766 39.46C67.0766 40.34 66.8432 41.1467 66.3766 41.88C65.9099 42.6 65.2499 43.2 64.3966 43.68V47.38H67.7366ZM59.0966 37.06C57.7899 37.06 56.7299 37.28 55.9166 37.72C55.1032 38.16 54.6966 38.74 54.6966 39.46C54.6966 39.9267 54.8832 40.3467 55.2566 40.72C55.6299 41.08 56.1499 41.36 56.8166 41.56C57.4832 41.76 58.2432 41.86 59.0966 41.86C59.9499 41.86 60.7099 41.76 61.3766 41.56C62.0432 41.36 62.5632 41.08 62.9366 40.72C63.3099 40.3467 63.4966 39.9267 63.4966 39.46C63.4966 38.74 63.0899 38.16 62.2766 37.72C61.4632 37.28 60.4032 37.06 59.0966 37.06ZM57.1766 47.38H61.0166V44.76C60.4166 44.84 59.7766 44.88 59.0966 44.88C58.4166 44.88 57.7766 44.84 57.1766 44.76V47.38Z" fill="#EA726F"/>
<g clip-path="url(#clip0_341_3158)">
<path d="M39.8025 15.9569C39.8208 15.92 39.849 15.8889 39.8839 15.8672C39.9189 15.8455 39.9593 15.834 40.0004 15.834C40.0416 15.834 40.0819 15.8455 40.1169 15.8672C40.1519 15.8889 40.1801 15.92 40.1983 15.9569L41.1608 17.9064C41.2242 18.0348 41.3178 18.1458 41.4336 18.23C41.5494 18.3141 41.6838 18.369 41.8254 18.3898L43.9779 18.7048C44.0187 18.7107 44.057 18.7279 44.0885 18.7544C44.1201 18.781 44.1435 18.8158 44.1563 18.855C44.169 18.8942 44.1705 18.9362 44.1607 18.9762C44.1508 19.0162 44.1299 19.0527 44.1004 19.0814L42.5438 20.5973C42.4411 20.6973 42.3643 20.8208 42.3199 20.9571C42.2756 21.0934 42.265 21.2385 42.2892 21.3798L42.6567 23.5214C42.6639 23.5622 42.6595 23.6042 42.644 23.6426C42.6285 23.6809 42.6025 23.7142 42.569 23.7385C42.5355 23.7629 42.4958 23.7773 42.4545 23.7801C42.4132 23.783 42.372 23.7742 42.3354 23.7548L40.4113 22.7431C40.2845 22.6765 40.1434 22.6418 40.0002 22.6418C39.857 22.6418 39.716 22.6765 39.5892 22.7431L37.6654 23.7548C37.6289 23.7741 37.5877 23.7828 37.5464 23.7799C37.5052 23.7769 37.4656 23.7625 37.4322 23.7382C37.3988 23.7139 37.3729 23.6807 37.3574 23.6424C37.3419 23.604 37.3374 23.5622 37.3446 23.5214L37.7117 21.3802C37.7359 21.2388 37.7254 21.0937 37.6811 20.9573C37.6367 20.8209 37.5598 20.6973 37.4571 20.5973L35.9004 19.0819C35.8707 19.0531 35.8496 19.0166 35.8396 18.9765C35.8296 18.9363 35.831 18.8942 35.8438 18.8549C35.8566 18.8155 35.8801 18.7805 35.9118 18.7539C35.9435 18.7273 35.982 18.7101 36.0229 18.7044L38.175 18.3898C38.3168 18.3691 38.4514 18.3144 38.5673 18.2302C38.6832 18.146 38.777 18.0349 38.8404 17.9064L39.8025 15.9569Z" fill="#EA726F" stroke="#EA726F" stroke-width="2" stroke-linecap="round" stroke-linejoin="round"/>
</g>
<defs>
<clipPath id="clip0_341_3158">
<rect width="10" height="10" fill="white" transform="translate(35 15)"/>
</clipPath>
</defs>
</svg>
