<svg width="80" height="80" viewBox="0 0 80 80" fill="none" xmlns="http://www.w3.org/2000/svg">
<circle cx="40" cy="40" r="39" fill="white" stroke="#E7E7E7" stroke-width="2"/>
<circle cx="40" cy="40" r="34.5" fill="white" stroke="#E7E7E7"/>
<path d="M20.02 39.52C19.1 39.9733 18.0067 40.3267 16.74 40.58C15.4733 40.82 14.1467 40.9533 12.76 40.98V38.54C13.9333 38.5133 15.0533 38.4 16.12 38.2C17.1867 38 18 37.7333 18.56 37.4H12.96V35H28.28V37.4H22.44L22.32 37.62L28.7 38.72L28.04 41.06L20.02 39.52ZM29.26 41.5V43.9H11.98V41.5H18.94V40.42H22.3V41.5H29.26ZM22.32 44.84H28.4V47.06H12.84V44.84H18.92V44.3H22.32V44.84ZM20.62 47.44C22.98 47.44 24.76 47.6267 25.96 48C27.16 48.36 27.76 48.98 27.76 49.86C27.76 50.74 27.16 51.36 25.96 51.72C24.76 52.0933 22.98 52.28 20.62 52.28C18.26 52.28 16.48 52.0933 15.28 51.72C14.08 51.36 13.48 50.74 13.48 49.86C13.48 48.98 14.08 48.36 15.28 48C16.48 47.6267 18.26 47.44 20.62 47.44ZM20.62 50.18C21.8867 50.18 22.82 50.1533 23.42 50.1C24.0333 50.06 24.34 49.98 24.34 49.86C24.34 49.7267 24.0267 49.6333 23.4 49.58C22.7867 49.5267 21.86 49.5 20.62 49.5C19.38 49.5 18.4467 49.5267 17.82 49.58C17.2067 49.6333 16.9 49.7267 16.9 49.86C16.9 49.98 17.2 50.06 17.8 50.1C18.4133 50.1533 19.3533 50.18 20.62 50.18ZM49.2583 44.52H47.2583V52.08H43.8783V35H47.2583V41.24H49.2583V44.52ZM36.8383 35.2C38.4916 35.2 39.7849 35.88 40.7183 37.24C41.6516 38.5867 42.1183 40.62 42.1183 43.34C42.1183 46.06 41.6516 48.1 40.7183 49.46C39.7849 50.8067 38.4916 51.48 36.8383 51.48C35.1849 51.48 33.8849 50.8067 32.9383 49.46C32.0049 48.1 31.5383 46.06 31.5383 43.34C31.5383 40.62 32.0049 38.5867 32.9383 37.24C33.8849 35.88 35.1849 35.2 36.8383 35.2ZM36.8383 48.38C38.1316 48.38 38.7783 46.7 38.7783 43.34C38.7783 39.98 38.1316 38.3 36.8383 38.3C35.5316 38.3 34.8783 39.98 34.8783 43.34C34.8783 46.7 35.5316 48.38 36.8383 48.38ZM67.7366 48.38V51.48H50.4566V48.38H53.7966V44.68C52.9432 44.2 52.2832 43.6 51.8166 42.88C51.3499 42.1467 51.1166 41.34 51.1166 40.46C51.1166 39.3933 51.4432 38.4533 52.0966 37.64C52.7632 36.8133 53.7032 36.1733 54.9166 35.72C56.1299 35.2533 57.5232 35.02 59.0966 35.02C60.6699 35.02 62.0632 35.2533 63.2766 35.72C64.4899 36.1733 65.4232 36.8133 66.0766 37.64C66.7432 38.4533 67.0766 39.3933 67.0766 40.46C67.0766 41.34 66.8432 42.1467 66.3766 42.88C65.9099 43.6 65.2499 44.2 64.3966 44.68V48.38H67.7366ZM59.0966 38.06C57.7899 38.06 56.7299 38.28 55.9166 38.72C55.1032 39.16 54.6966 39.74 54.6966 40.46C54.6966 40.9267 54.8832 41.3467 55.2566 41.72C55.6299 42.08 56.1499 42.36 56.8166 42.56C57.4832 42.76 58.2432 42.86 59.0966 42.86C59.9499 42.86 60.7099 42.76 61.3766 42.56C62.0432 42.36 62.5632 42.08 62.9366 41.72C63.3099 41.3467 63.4966 40.9267 63.4966 40.46C63.4966 39.74 63.0899 39.16 62.2766 38.72C61.4632 38.28 60.4032 38.06 59.0966 38.06ZM57.1766 48.38H61.0166V45.76C60.4166 45.84 59.7766 45.88 59.0966 45.88C58.4166 45.88 57.7766 45.84 57.1766 45.76V48.38Z" fill="#E7E7E7"/>
<g clip-path="url(#clip0_825_11367)">
<path d="M39.802 9.95637C39.8203 9.91948 39.8485 9.88842 39.8835 9.86671C39.9184 9.845 39.9588 9.8335 39.9999 9.8335C40.0411 9.8335 40.0814 9.845 40.1164 9.86671C40.1514 9.88842 40.1796 9.91948 40.1979 9.95637L41.1604 11.906C41.2238 12.0343 41.3174 12.1453 41.4331 12.2295C41.5489 12.3137 41.6833 12.3685 41.8249 12.3893L43.9774 12.7043C44.0182 12.7102 44.0565 12.7274 44.0881 12.754C44.1196 12.7805 44.143 12.8153 44.1558 12.8545C44.1685 12.8937 44.17 12.9357 44.1602 12.9757C44.1503 13.0157 44.1294 13.0522 44.0999 13.081L42.5433 14.5968C42.4406 14.6968 42.3638 14.8203 42.3195 14.9566C42.2751 15.0929 42.2645 15.238 42.2887 15.3793L42.6562 17.521C42.6634 17.5617 42.659 17.6037 42.6435 17.6421C42.628 17.6805 42.602 17.7137 42.5685 17.738C42.535 17.7624 42.4953 17.7768 42.454 17.7797C42.4128 17.7825 42.3715 17.7737 42.3349 17.7543L40.4108 16.7426C40.284 16.676 40.1429 16.6413 39.9997 16.6413C39.8565 16.6413 39.7155 16.676 39.5887 16.7426L37.6649 17.7543C37.6284 17.7736 37.5872 17.7823 37.546 17.7794C37.5047 17.7765 37.4652 17.762 37.4317 17.7377C37.3983 17.7134 37.3724 17.6802 37.3569 17.6419C37.3414 17.6036 37.337 17.5617 37.3441 17.521L37.7112 15.3797C37.7354 15.2383 37.7249 15.0932 37.6806 14.9568C37.6362 14.8204 37.5594 14.6968 37.4566 14.5968L35.8999 13.0814C35.8702 13.0526 35.8491 13.0161 35.8391 12.976C35.8291 12.9358 35.8305 12.8937 35.8433 12.8544C35.8561 12.815 35.8796 12.7801 35.9113 12.7534C35.943 12.7268 35.9815 12.7097 36.0224 12.7039L38.1745 12.3893C38.3163 12.3687 38.4509 12.3139 38.5668 12.2297C38.6828 12.1455 38.7765 12.0344 38.8399 11.906L39.802 9.95637Z" fill="#E7E7E7" stroke="#E7E7E7" stroke-width="2" stroke-linecap="round" stroke-linejoin="round"/>
</g>
<defs>
<clipPath id="clip0_825_11367">
<rect width="10" height="10" fill="white" transform="translate(35 9)"/>
</clipPath>
</defs>
</svg>
