<svg width="41" height="41" viewBox="0 0 41 41" fill="none" xmlns="http://www.w3.org/2000/svg">
<rect width="40.7" height="40.7" rx="20.35" fill="white"/>
<path fill-rule="evenodd" clip-rule="evenodd" d="M20.1979 9C20.4051 9 20.6038 9.08231 20.7503 9.22882C20.8969 9.37534 20.9792 9.57405 20.9792 9.78125V10.8229C20.9792 11.0301 20.8969 11.2288 20.7503 11.3753C20.6038 11.5219 20.4051 11.6042 20.1979 11.6042C19.9907 11.6042 19.792 11.5219 19.6455 11.3753C19.499 11.2288 19.4167 11.0301 19.4167 10.8229V9.78125C19.4167 9.57405 19.499 9.37534 19.6455 9.22882C19.792 9.08231 19.9907 9 20.1979 9ZM12.2802 12.2802C12.4267 12.1339 12.6253 12.0517 12.8323 12.0517C13.0393 12.0517 13.2379 12.1339 13.3844 12.2802L13.7938 12.6885C13.9361 12.8358 14.015 13.0331 14.0133 13.238C14.0116 13.4428 13.9295 13.6388 13.7848 13.7837C13.64 13.9286 13.4441 14.0109 13.2392 14.0128C13.0344 14.0146 12.837 13.936 12.6896 13.7938L12.2802 13.3844C12.1339 13.2379 12.0517 13.0393 12.0517 12.8323C12.0517 12.6253 12.1339 12.4267 12.2802 12.2802ZM28.1156 12.2802C28.2619 12.4267 28.3441 12.6253 28.3441 12.8323C28.3441 13.0393 28.2619 13.2379 28.1156 13.3844L27.7063 13.7938C27.5582 13.9318 27.3623 14.0069 27.1599 14.0033C26.9575 13.9997 26.7644 13.9177 26.6212 13.7746C26.4781 13.6315 26.3961 13.4384 26.3925 13.236C26.389 13.0336 26.4641 12.8377 26.6021 12.6896L27.0115 12.2802C27.1579 12.1339 27.3565 12.0517 27.5635 12.0517C27.7706 12.0517 27.9691 12.1339 28.1156 12.2802ZM20.1979 14.7292C18.7475 14.7292 17.3565 15.3053 16.3309 16.3309C15.3053 17.3565 14.7292 18.7475 14.7292 20.1979C14.7292 21.6483 15.3053 23.0393 16.3309 24.0649C17.3565 25.0905 18.7475 25.6667 20.1979 25.6667C21.6483 25.6667 23.0393 25.0905 24.0649 24.0649C25.0905 23.0393 25.6667 21.6483 25.6667 20.1979C25.6667 18.7475 25.0905 17.3565 24.0649 16.3309C23.0393 15.3053 21.6483 14.7292 20.1979 14.7292ZM13.1667 20.1979C13.1667 18.3331 13.9075 16.5447 15.2261 15.2261C16.5447 13.9075 18.3331 13.1667 20.1979 13.1667C22.0627 13.1667 23.8511 13.9075 25.1698 15.2261C26.4884 16.5447 27.2292 18.3331 27.2292 20.1979C27.2292 22.0627 26.4884 23.8511 25.1698 25.1698C23.8511 26.4884 22.0627 27.2292 20.1979 27.2292C18.3331 27.2292 16.5447 26.4884 15.2261 25.1698C13.9075 23.8511 13.1667 22.0627 13.1667 20.1979ZM9 20.1979C9 19.9907 9.08231 19.792 9.22882 19.6455C9.37534 19.499 9.57405 19.4167 9.78125 19.4167H10.8229C11.0301 19.4167 11.2288 19.499 11.3753 19.6455C11.5219 19.792 11.6042 19.9907 11.6042 20.1979C11.6042 20.4051 11.5219 20.6038 11.3753 20.7503C11.2288 20.8969 11.0301 20.9792 10.8229 20.9792H9.78125C9.57405 20.9792 9.37534 20.8969 9.22882 20.7503C9.08231 20.6038 9 20.4051 9 20.1979ZM28.7917 20.1979C28.7917 19.9907 28.874 19.792 29.0205 19.6455C29.167 19.499 29.3657 19.4167 29.5729 19.4167H30.6146C30.8218 19.4167 31.0205 19.499 31.167 19.6455C31.3135 19.792 31.3958 19.9907 31.3958 20.1979C31.3958 20.4051 31.3135 20.6038 31.167 20.7503C31.0205 20.8969 30.8218 20.9792 30.6146 20.9792H29.5729C29.3657 20.9792 29.167 20.8969 29.0205 20.7503C28.874 20.6038 28.7917 20.4051 28.7917 20.1979ZM26.6021 26.6021C26.7486 26.4558 26.9471 26.3736 27.1542 26.3736C27.3612 26.3736 27.5598 26.4558 27.7063 26.6021L28.1156 27.0115C28.1924 27.083 28.2539 27.1692 28.2966 27.2651C28.3393 27.3609 28.3623 27.4643 28.3642 27.5692C28.366 27.6741 28.3467 27.7783 28.3074 27.8756C28.2681 27.9729 28.2096 28.0613 28.1355 28.1355C28.0613 28.2096 27.9729 28.2681 27.8756 28.3074C27.7783 28.3467 27.6741 28.366 27.5692 28.3642C27.4643 28.3623 27.3609 28.3393 27.2651 28.2966C27.1692 28.2539 27.083 28.1924 27.0115 28.1156L26.6021 27.7063C26.4558 27.5598 26.3736 27.3612 26.3736 27.1542C26.3736 26.9471 26.4558 26.7486 26.6021 26.6021ZM13.7938 26.6021C13.9401 26.7486 14.0222 26.9471 14.0222 27.1542C14.0222 27.3612 13.9401 27.5598 13.7938 27.7063L13.3844 28.1156C13.3129 28.1924 13.2266 28.2539 13.1308 28.2966C13.0349 28.3393 12.9315 28.3623 12.8266 28.3642C12.7217 28.366 12.6175 28.3467 12.5202 28.3074C12.4229 28.2681 12.3346 28.2096 12.2604 28.1355C12.1862 28.0613 12.1277 27.9729 12.0884 27.8756C12.0491 27.7783 12.0298 27.6741 12.0317 27.5692C12.0335 27.4643 12.0565 27.3609 12.0992 27.2651C12.1419 27.1692 12.2035 27.083 12.2802 27.0115L12.6885 26.6021C12.7611 26.5295 12.8472 26.4719 12.9421 26.4326C13.0369 26.3933 13.1385 26.3731 13.2411 26.3731C13.3438 26.3731 13.4454 26.3933 13.5402 26.4326C13.6351 26.4719 13.7212 26.5295 13.7938 26.6021ZM20.1979 28.7917C20.4051 28.7917 20.6038 28.874 20.7503 29.0205C20.8969 29.167 20.9792 29.3657 20.9792 29.5729V30.6146C20.9792 30.8218 20.8969 31.0205 20.7503 31.167C20.6038 31.3135 20.4051 31.3958 20.1979 31.3958C19.9907 31.3958 19.792 31.3135 19.6455 31.167C19.499 31.0205 19.4167 30.8218 19.4167 30.6146V29.5729C19.4167 29.3657 19.499 29.167 19.6455 29.0205C19.792 28.874 19.9907 28.7917 20.1979 28.7917Z" fill="black"/>
</svg>
