<svg width="40" height="14" viewBox="0 0 40 14" fill="none" xmlns="http://www.w3.org/2000/svg">
<path d="M9.84521 2.38623C9.86637 2.31006 9.88965 2.2487 9.91504 2.20215C9.94043 2.15137 9.99756 2.1154 10.0864 2.09424L11.959 1.6626C11.9674 1.6626 11.978 1.66048 11.9907 1.65625C12.0034 1.65202 12.014 1.6499 12.0225 1.6499C12.0817 1.6499 12.1219 1.67529 12.1431 1.72607C12.1685 1.77686 12.1812 1.82552 12.1812 1.87207C12.1812 1.88053 12.179 1.89746 12.1748 1.92285C12.1748 1.94824 12.1727 1.96517 12.1685 1.97363L9.54053 9.95898C9.47282 10.1325 9.41569 10.2743 9.36914 10.3843C9.32682 10.4901 9.28239 10.5789 9.23584 10.6509C9.19352 10.7186 9.14274 10.7757 9.0835 10.8223C9.02848 10.8688 8.95231 10.9154 8.85498 10.9619C8.76188 11.0085 8.64339 11.0614 8.49951 11.1206C8.35563 11.1841 8.17367 11.2687 7.95361 11.3745C7.87744 11.4126 7.8182 11.4316 7.77588 11.4316C7.70817 11.4316 7.65739 11.4062 7.62354 11.3555C7.58968 11.3047 7.56217 11.2476 7.54102 11.1841L6.45557 7.31836L5.09717 10.1177C5.07601 10.1685 5.02734 10.2362 4.95117 10.3208C4.875 10.4054 4.78825 10.4922 4.69092 10.5811C4.59782 10.6699 4.5026 10.7567 4.40527 10.8413C4.31217 10.9217 4.236 10.9873 4.17676 11.0381C4.12174 11.0846 4.0625 11.1312 3.99902 11.1777C3.93978 11.2243 3.87842 11.2666 3.81494 11.3047C3.75146 11.3428 3.6901 11.3724 3.63086 11.3936C3.57585 11.4189 3.52295 11.4316 3.47217 11.4316C3.36214 11.4316 3.2902 11.3703 3.25635 11.2476L0.793457 2.56396C0.784993 2.53011 0.774414 2.49626 0.761719 2.4624C0.753255 2.42855 0.749023 2.39681 0.749023 2.36719C0.749023 2.26139 0.774414 2.17253 0.825195 2.10059C0.875977 2.02865 0.964844 1.96729 1.0918 1.9165C1.21875 1.86572 1.38802 1.82552 1.59961 1.7959C1.8112 1.76204 2.07992 1.73454 2.40576 1.71338C2.55811 1.69222 2.68506 1.67741 2.78662 1.66895C2.89242 1.66048 2.98128 1.65625 3.05322 1.65625C3.17594 1.65625 3.25635 1.67529 3.29443 1.71338C3.33252 1.75146 3.36637 1.81494 3.396 1.90381L4.70361 6.9375L5.78906 5.07129L5.35107 3.16064C5.32568 3.05908 5.3151 2.98291 5.31934 2.93213C5.31934 2.8348 5.34473 2.75651 5.39551 2.69727C5.44629 2.63802 5.53092 2.58936 5.64941 2.55127C5.7679 2.51318 5.92236 2.47933 6.11279 2.44971C6.30745 2.42008 6.54443 2.38623 6.82373 2.34814C6.94645 2.33122 7.05225 2.31852 7.14111 2.31006C7.22998 2.3016 7.30615 2.29736 7.36963 2.29736C7.49658 2.29736 7.58333 2.31641 7.62988 2.35449C7.67643 2.39258 7.71029 2.45394 7.73145 2.53857L8.59473 6.44873L9.84521 2.38623Z" fill="#90CFF1"/>
<path d="M12.3906 8.30859C12.4456 7.72884 12.5007 7.15544 12.5557 6.58838C12.6107 6.02132 12.6593 5.43945 12.7017 4.84277C12.7101 4.70312 12.7228 4.60791 12.7397 4.55713C12.7609 4.50212 12.8096 4.46615 12.8857 4.44922C13.2454 4.37728 13.6221 4.30322 14.0156 4.22705C14.4092 4.14665 14.79 4.04508 15.1582 3.92236C15.1709 3.91813 15.1899 3.91602 15.2153 3.91602C15.2619 3.91602 15.2852 3.93294 15.2852 3.9668L14.7139 10.1494C14.7012 10.2891 14.6864 10.3864 14.6694 10.4414C14.6525 10.4922 14.606 10.526 14.5298 10.543C14.1701 10.653 13.8062 10.7757 13.438 10.9111C13.0698 11.0465 12.6805 11.1841 12.27 11.3237C12.2573 11.328 12.2383 11.3301 12.2129 11.3301C12.1663 11.3301 12.1431 11.3089 12.1431 11.2666C12.1431 11.2624 12.1473 11.2052 12.1558 11.0952C12.1642 10.9852 12.1748 10.8434 12.1875 10.6699C12.2044 10.4964 12.2214 10.3018 12.2383 10.0859C12.2552 9.87012 12.2721 9.6543 12.2891 9.43848C12.3102 9.22266 12.3293 9.0153 12.3462 8.81641C12.3631 8.61751 12.3779 8.44824 12.3906 8.30859ZM12.8667 3.24316C12.8794 3.0612 12.8879 2.92155 12.8921 2.82422C12.9006 2.72689 12.9069 2.65495 12.9111 2.6084C12.9154 2.55762 12.9175 2.52588 12.9175 2.51318C12.9175 2.50049 12.9175 2.49202 12.9175 2.48779C12.9217 2.47933 12.9238 2.46663 12.9238 2.44971C12.9281 2.42855 12.9323 2.38835 12.9365 2.3291C12.9408 2.26562 12.9471 2.17464 12.9556 2.05615C12.964 1.93766 12.9767 1.77474 12.9937 1.56738C13.0021 1.42773 13.0148 1.33252 13.0317 1.28174C13.0529 1.22673 13.1016 1.19076 13.1777 1.17383C13.5374 1.10189 13.9141 1.02783 14.3076 0.95166C14.7012 0.871257 15.082 0.769694 15.4502 0.646973C15.4629 0.642741 15.4819 0.640625 15.5073 0.640625C15.52 0.666016 15.5369 0.682943 15.5581 0.691406L15.5771 0.704102L15.4375 2.44336C15.4248 2.58301 15.4079 2.68034 15.3867 2.73535C15.3698 2.79036 15.3254 2.82422 15.2534 2.83691C14.8937 2.90462 14.5298 2.97868 14.1616 3.05908C13.7935 3.13949 13.4041 3.21989 12.9937 3.30029C12.981 3.30452 12.9619 3.30664 12.9365 3.30664C12.89 3.30664 12.8667 3.28548 12.8667 3.24316Z" fill="#FBAE8F"/>
<path d="M18.7891 8.93066C18.8314 9.0153 18.8906 9.10205 18.9668 9.19092C19.0472 9.27555 19.1382 9.35384 19.2397 9.42578C19.3455 9.49772 19.4598 9.55697 19.5825 9.60352C19.7052 9.64583 19.8322 9.66699 19.9634 9.66699C20.1453 9.66699 20.3167 9.59717 20.4775 9.45752C20.6383 9.31364 20.778 9.12321 20.8965 8.88623C21.0192 8.64502 21.1144 8.37207 21.1821 8.06738C21.2498 7.75846 21.2837 7.43896 21.2837 7.10889C21.2837 6.90576 21.2646 6.71322 21.2266 6.53125C21.1927 6.34928 21.1377 6.19059 21.0615 6.05518C20.9854 5.91976 20.8859 5.81185 20.7632 5.73145C20.6447 5.65104 20.5008 5.61084 20.3315 5.61084C20.0565 5.61084 19.8047 5.69124 19.5762 5.85205C19.3477 6.01286 19.1551 6.2181 18.9985 6.46777L18.7891 8.93066ZM16.4277 11.311C16.3685 11.3237 16.3219 11.3301 16.2881 11.3301C16.1527 11.3301 16.085 11.2497 16.085 11.0889C16.085 11.0677 16.085 11.0465 16.085 11.0254C16.0892 11.0042 16.0934 10.981 16.0977 10.9556L16.834 1.97363C16.834 1.96094 16.834 1.94824 16.834 1.93555C16.8382 1.92285 16.8403 1.91227 16.8403 1.90381C16.8403 1.88688 16.8382 1.87207 16.834 1.85938C16.834 1.84668 16.834 1.8361 16.834 1.82764C16.834 1.78955 16.8467 1.75993 16.8721 1.73877C16.9017 1.71338 16.9736 1.68587 17.0879 1.65625L18.8716 1.23096C18.9181 1.22249 18.9795 1.20345 19.0557 1.17383C19.1318 1.14421 19.2059 1.12939 19.2778 1.12939C19.3328 1.12939 19.3836 1.14209 19.4302 1.16748C19.481 1.19287 19.5063 1.24154 19.5063 1.31348C19.5063 1.32194 19.5042 1.3304 19.5 1.33887C19.5 1.34733 19.5 1.35579 19.5 1.36426C19.4958 1.38542 19.4852 1.47852 19.4683 1.64355C19.4513 1.80859 19.4323 2.0096 19.4111 2.24658C19.39 2.47933 19.3667 2.73112 19.3413 3.00195C19.3159 3.26855 19.2926 3.52035 19.2715 3.75732C19.2503 3.99007 19.2313 4.18896 19.2144 4.354C19.1974 4.51904 19.1868 4.61214 19.1826 4.6333C19.4915 4.43018 19.811 4.2609 20.1411 4.12549C20.4712 3.98584 20.8013 3.91602 21.1313 3.91602C21.5672 3.91602 21.9438 4.007 22.2612 4.18896C22.5786 4.3667 22.841 4.60579 23.0483 4.90625C23.2557 5.20247 23.408 5.54525 23.5054 5.93457C23.6069 6.32389 23.6577 6.72591 23.6577 7.14062C23.6577 7.47493 23.626 7.81136 23.5625 8.1499C23.5033 8.48421 23.4144 8.80583 23.2959 9.11475C23.1816 9.42367 23.0356 9.71354 22.8579 9.98438C22.6844 10.2552 22.4834 10.4901 22.2549 10.689C22.0306 10.8879 21.7788 11.0444 21.4995 11.1587C21.2202 11.2729 20.9176 11.3301 20.5918 11.3301C20.1982 11.3301 19.8385 11.2433 19.5127 11.0698C19.1868 10.8963 18.8843 10.672 18.605 10.397C18.5965 10.4985 18.5902 10.5789 18.5859 10.6382C18.5817 10.6974 18.5669 10.744 18.5415 10.7778C18.5203 10.8075 18.4865 10.8328 18.4399 10.854C18.3934 10.8709 18.3236 10.89 18.2305 10.9111C18.1839 10.9238 18.1014 10.945 17.9829 10.9746C17.8687 11 17.729 11.0296 17.564 11.0635C17.4032 11.1016 17.2233 11.1418 17.0244 11.1841C16.8298 11.2264 16.6309 11.2687 16.4277 11.311ZM27.168 8.93066C27.2103 9.0153 27.2695 9.10205 27.3457 9.19092C27.4261 9.27555 27.5171 9.35384 27.6187 9.42578C27.7244 9.49772 27.8387 9.55697 27.9614 9.60352C28.0841 9.64583 28.2111 9.66699 28.3423 9.66699C28.5243 9.66699 28.6956 9.59717 28.8564 9.45752C29.0173 9.31364 29.1569 9.12321 29.2754 8.88623C29.3981 8.64502 29.4933 8.37207 29.561 8.06738C29.6287 7.75846 29.6626 7.43896 29.6626 7.10889C29.6626 6.90576 29.6436 6.71322 29.6055 6.53125C29.5716 6.34928 29.5166 6.19059 29.4404 6.05518C29.3643 5.91976 29.2648 5.81185 29.1421 5.73145C29.0236 5.65104 28.8797 5.61084 28.7104 5.61084C28.4354 5.61084 28.1836 5.69124 27.9551 5.85205C27.7266 6.01286 27.534 6.2181 27.3774 6.46777L27.168 8.93066ZM24.8066 11.311C24.7474 11.3237 24.7008 11.3301 24.667 11.3301C24.5316 11.3301 24.4639 11.2497 24.4639 11.0889C24.4639 11.0677 24.4639 11.0465 24.4639 11.0254C24.4681 11.0042 24.4723 10.981 24.4766 10.9556L25.2129 1.97363C25.2129 1.96094 25.2129 1.94824 25.2129 1.93555C25.2171 1.92285 25.2192 1.91227 25.2192 1.90381C25.2192 1.88688 25.2171 1.87207 25.2129 1.85938C25.2129 1.84668 25.2129 1.8361 25.2129 1.82764C25.2129 1.78955 25.2256 1.75993 25.251 1.73877C25.2806 1.71338 25.3525 1.68587 25.4668 1.65625L27.2505 1.23096C27.297 1.22249 27.3584 1.20345 27.4346 1.17383C27.5107 1.14421 27.5848 1.12939 27.6567 1.12939C27.7118 1.12939 27.7625 1.14209 27.8091 1.16748C27.8599 1.19287 27.8853 1.24154 27.8853 1.31348C27.8853 1.32194 27.8831 1.3304 27.8789 1.33887C27.8789 1.34733 27.8789 1.35579 27.8789 1.36426C27.8747 1.38542 27.8641 1.47852 27.8472 1.64355C27.8302 1.80859 27.8112 2.0096 27.79 2.24658C27.7689 2.47933 27.7456 2.73112 27.7202 3.00195C27.6948 3.26855 27.6715 3.52035 27.6504 3.75732C27.6292 3.99007 27.6102 4.18896 27.5933 4.354C27.5763 4.51904 27.5658 4.61214 27.5615 4.6333C27.8704 4.43018 28.1899 4.2609 28.52 4.12549C28.8501 3.98584 29.1802 3.91602 29.5103 3.91602C29.9461 3.91602 30.3228 4.007 30.6401 4.18896C30.9575 4.3667 31.2199 4.60579 31.4272 4.90625C31.6346 5.20247 31.7869 5.54525 31.8843 5.93457C31.9858 6.32389 32.0366 6.72591 32.0366 7.14062C32.0366 7.47493 32.0049 7.81136 31.9414 8.1499C31.8822 8.48421 31.7933 8.80583 31.6748 9.11475C31.5605 9.42367 31.4146 9.71354 31.2368 9.98438C31.0633 10.2552 30.8623 10.4901 30.6338 10.689C30.4095 10.8879 30.1577 11.0444 29.8784 11.1587C29.5991 11.2729 29.2965 11.3301 28.9707 11.3301C28.5771 11.3301 28.2174 11.2433 27.8916 11.0698C27.5658 10.8963 27.2632 10.672 26.9839 10.397C26.9754 10.4985 26.9691 10.5789 26.9648 10.6382C26.9606 10.6974 26.9458 10.744 26.9204 10.7778C26.8993 10.8075 26.8654 10.8328 26.8188 10.854C26.7723 10.8709 26.7025 10.89 26.6094 10.9111C26.5628 10.9238 26.4803 10.945 26.3618 10.9746C26.2476 11 26.1079 11.0296 25.9429 11.0635C25.7821 11.1016 25.6022 11.1418 25.4033 11.1841C25.2087 11.2264 25.0098 11.2687 24.8066 11.311ZM35.4199 13.8945C35.4115 13.9115 35.4009 13.9242 35.3882 13.9326C35.3797 13.9453 35.3628 13.9517 35.3374 13.9517C35.312 13.9517 35.293 13.9495 35.2803 13.9453C35.1279 13.8903 34.984 13.8438 34.8486 13.8057C34.7132 13.7676 34.5778 13.7316 34.4424 13.6978C34.3112 13.6681 34.1758 13.6385 34.0361 13.6089C33.8965 13.5835 33.7484 13.5539 33.5918 13.52C33.5495 13.5116 33.5156 13.4967 33.4902 13.4756C33.4691 13.4587 33.4585 13.4269 33.4585 13.3804C33.4585 13.3677 33.4648 13.3359 33.4775 13.2852C33.4945 13.2386 33.5326 13.1392 33.5918 12.9868C33.651 12.8387 33.742 12.6208 33.8647 12.333C33.9875 12.0495 34.1567 11.6665 34.3726 11.1841C34.3091 10.9725 34.2371 10.7186 34.1567 10.4224C34.0763 10.1261 33.9896 9.80241 33.8965 9.45117C33.8076 9.09993 33.7145 8.72965 33.6172 8.34033C33.5199 7.94678 33.4204 7.55111 33.3188 7.15332C33.2215 6.7513 33.1221 6.35563 33.0205 5.96631C32.9232 5.57275 32.828 5.19824 32.7349 4.84277C32.7052 4.77507 32.6883 4.72005 32.6841 4.67773C32.6799 4.63118 32.6777 4.5931 32.6777 4.56348C32.6777 4.50423 32.7116 4.46615 32.7793 4.44922C33.1094 4.37728 33.4521 4.30322 33.8076 4.22705C34.1631 4.14665 34.4995 4.04508 34.8169 3.92236C34.8296 3.91813 34.8486 3.91602 34.874 3.91602C34.929 3.91602 34.9587 3.93717 34.9629 3.97949L35.7373 8.24512C35.7542 8.19434 35.786 8.10335 35.8325 7.97217C35.8833 7.83675 35.9404 7.67594 36.0039 7.48975C36.0716 7.30355 36.1457 7.09831 36.2261 6.87402C36.3065 6.64974 36.389 6.42122 36.4736 6.18848C36.5583 5.95573 36.6408 5.7251 36.7212 5.49658C36.8058 5.26383 36.8841 5.04801 36.9561 4.84912C37.028 4.65023 37.0894 4.47461 37.1401 4.32227C37.1951 4.16992 37.2375 4.05566 37.2671 3.97949C37.284 3.93717 37.3158 3.91602 37.3623 3.91602C37.375 3.91602 37.3835 3.91813 37.3877 3.92236C37.3919 3.92236 37.4004 3.92236 37.4131 3.92236C37.7305 4.04508 38.0563 4.14665 38.3906 4.22705C38.7249 4.30322 39.0571 4.37728 39.3872 4.44922C39.4676 4.46615 39.5078 4.5127 39.5078 4.58887C39.5078 4.64388 39.4824 4.72852 39.4316 4.84277L36.8164 10.7524L35.4199 13.8945Z" fill="#353435"/>
</svg>
