<svg width="30" height="30" viewBox="0 0 30 30" fill="none" xmlns="http://www.w3.org/2000/svg">
<rect width="30" height="30" rx="15" fill="#111111"/>
<path d="M17.0834 8.3335H12.9167L10.8334 10.8335H8.33341C7.89139 10.8335 7.46746 11.0091 7.1549 11.3217C6.84234 11.6342 6.66675 12.0581 6.66675 12.5002V20.0002C6.66675 20.4422 6.84234 20.8661 7.1549 21.1787C7.46746 21.4912 7.89139 21.6668 8.33341 21.6668H21.6667C22.1088 21.6668 22.5327 21.4912 22.8453 21.1787C23.1578 20.8661 23.3334 20.4422 23.3334 20.0002V12.5002C23.3334 12.0581 23.1578 11.6342 22.8453 11.3217C22.5327 11.0091 22.1088 10.8335 21.6667 10.8335H19.1667L17.0834 8.3335Z" stroke="white" stroke-width="2" stroke-linecap="round" stroke-linejoin="round"/>
<path d="M15.0001 18.3335C16.3808 18.3335 17.5001 17.2142 17.5001 15.8335C17.5001 14.4528 16.3808 13.3335 15.0001 13.3335C13.6194 13.3335 12.5001 14.4528 12.5001 15.8335C12.5001 17.2142 13.6194 18.3335 15.0001 18.3335Z" stroke="white" stroke-width="2" stroke-linecap="round" stroke-linejoin="round"/>
</svg>
