<svg width="43" height="16" viewBox="0 0 43 16" fill="none" xmlns="http://www.w3.org/2000/svg">
<path d="M10.6025 2.72363C10.6253 2.6416 10.6504 2.57552 10.6777 2.52539C10.7051 2.4707 10.7666 2.43197 10.8623 2.40918L12.8789 1.94434C12.888 1.94434 12.8994 1.94206 12.9131 1.9375C12.9268 1.93294 12.9382 1.93066 12.9473 1.93066C13.0111 1.93066 13.0544 1.95801 13.0771 2.0127C13.1045 2.06738 13.1182 2.11979 13.1182 2.16992C13.1182 2.17904 13.1159 2.19727 13.1113 2.22461C13.1113 2.25195 13.109 2.27018 13.1045 2.2793L10.2744 10.8789C10.2015 11.0658 10.14 11.2184 10.0898 11.3369C10.0443 11.4508 9.99642 11.5465 9.94629 11.624C9.90072 11.6969 9.84603 11.7585 9.78223 11.8086C9.72298 11.8587 9.64095 11.9089 9.53613 11.959C9.43587 12.0091 9.30827 12.0661 9.15332 12.1299C8.99837 12.1982 8.80241 12.2894 8.56543 12.4033C8.4834 12.4443 8.4196 12.4648 8.37402 12.4648C8.30111 12.4648 8.24642 12.4375 8.20996 12.3828C8.1735 12.3281 8.14388 12.2666 8.12109 12.1982L6.95215 8.03516L5.48926 11.0498C5.46647 11.1045 5.41406 11.1774 5.33203 11.2686C5.25 11.3597 5.15658 11.4531 5.05176 11.5488C4.9515 11.6445 4.84896 11.738 4.74414 11.8291C4.64388 11.9157 4.56185 11.9863 4.49805 12.041C4.4388 12.0911 4.375 12.1413 4.30664 12.1914C4.24284 12.2415 4.17676 12.2871 4.1084 12.3281C4.04004 12.3691 3.97396 12.401 3.91016 12.4238C3.85091 12.4512 3.79395 12.4648 3.73926 12.4648C3.62077 12.4648 3.54329 12.3988 3.50684 12.2666L0.854492 2.91504C0.845378 2.87858 0.833984 2.84212 0.820312 2.80566C0.811198 2.76921 0.806641 2.73503 0.806641 2.70312C0.806641 2.58919 0.833984 2.49349 0.888672 2.41602C0.943359 2.33854 1.03906 2.27246 1.17578 2.21777C1.3125 2.16309 1.49479 2.11979 1.72266 2.08789C1.95052 2.05143 2.23991 2.02181 2.59082 1.99902C2.75488 1.97624 2.8916 1.96029 3.00098 1.95117C3.11491 1.94206 3.21061 1.9375 3.28809 1.9375C3.42025 1.9375 3.50684 1.95801 3.54785 1.99902C3.58887 2.04004 3.62533 2.1084 3.65723 2.2041L5.06543 7.625L6.23438 5.61523L5.7627 3.55762C5.73535 3.44824 5.72396 3.36621 5.72852 3.31152C5.72852 3.20671 5.75586 3.1224 5.81055 3.05859C5.86523 2.99479 5.95638 2.94238 6.08398 2.90137C6.21159 2.86035 6.37793 2.82389 6.58301 2.79199C6.79264 2.76009 7.04785 2.72363 7.34863 2.68262C7.48079 2.66439 7.59473 2.65072 7.69043 2.6416C7.78613 2.63249 7.86816 2.62793 7.93652 2.62793C8.07324 2.62793 8.16667 2.64844 8.2168 2.68945C8.26693 2.73047 8.30339 2.79655 8.32617 2.8877L9.25586 7.09863L10.6025 2.72363Z" fill="#90CFF1"/>
<path d="M13.3438 9.10156C13.403 8.47721 13.4622 7.8597 13.5215 7.24902C13.5807 6.63835 13.6331 6.01172 13.6787 5.36914C13.6878 5.21875 13.7015 5.11621 13.7197 5.06152C13.7425 5.00228 13.7949 4.96354 13.877 4.94531C14.2643 4.86784 14.6699 4.78809 15.0938 4.70605C15.5176 4.61947 15.9277 4.51009 16.3242 4.37793C16.3379 4.37337 16.3584 4.37109 16.3857 4.37109C16.4359 4.37109 16.4609 4.38932 16.4609 4.42578L15.8457 11.084C15.832 11.2344 15.8161 11.3392 15.7979 11.3984C15.7796 11.4531 15.7295 11.4896 15.6475 11.5078C15.2601 11.6263 14.8682 11.7585 14.4717 11.9043C14.0752 12.0501 13.6559 12.1982 13.2139 12.3486C13.2002 12.3532 13.1797 12.3555 13.1523 12.3555C13.1022 12.3555 13.0771 12.3327 13.0771 12.2871C13.0771 12.2826 13.0817 12.221 13.0908 12.1025C13.0999 11.984 13.1113 11.8314 13.125 11.6445C13.1432 11.4577 13.1615 11.248 13.1797 11.0156C13.1979 10.7832 13.2161 10.5508 13.2344 10.3184C13.2572 10.0859 13.2777 9.86263 13.2959 9.64844C13.3141 9.43424 13.3301 9.25195 13.3438 9.10156ZM13.8564 3.64648C13.8701 3.45052 13.8792 3.30013 13.8838 3.19531C13.8929 3.09049 13.8997 3.01302 13.9043 2.96289C13.9089 2.9082 13.9111 2.87402 13.9111 2.86035C13.9111 2.84668 13.9111 2.83757 13.9111 2.83301C13.9157 2.82389 13.918 2.81022 13.918 2.79199C13.9225 2.76921 13.9271 2.72591 13.9316 2.66211C13.9362 2.59375 13.943 2.49577 13.9521 2.36816C13.9613 2.24056 13.9749 2.0651 13.9932 1.8418C14.0023 1.69141 14.016 1.58887 14.0342 1.53418C14.057 1.47493 14.1094 1.4362 14.1914 1.41797C14.5788 1.34049 14.9844 1.26074 15.4082 1.17871C15.832 1.09212 16.2422 0.982747 16.6387 0.850586C16.6523 0.846029 16.6729 0.84375 16.7002 0.84375C16.7139 0.871094 16.7321 0.889323 16.7549 0.898438L16.7754 0.912109L16.625 2.78516C16.6113 2.93555 16.5931 3.04036 16.5703 3.09961C16.5521 3.15885 16.5042 3.19531 16.4268 3.20898C16.0394 3.2819 15.6475 3.36165 15.251 3.44824C14.8545 3.53483 14.4352 3.62142 13.9932 3.70801C13.9795 3.71257 13.959 3.71484 13.9316 3.71484C13.8815 3.71484 13.8564 3.69206 13.8564 3.64648Z" fill="#FBAE8F"/>
<path d="M20.2344 9.77148C20.2799 9.86263 20.3438 9.95605 20.4258 10.0518C20.5124 10.1429 20.6104 10.2272 20.7197 10.3047C20.8337 10.3822 20.9567 10.446 21.0889 10.4961C21.221 10.5417 21.3577 10.5645 21.499 10.5645C21.695 10.5645 21.8796 10.4893 22.0527 10.3389C22.2259 10.1839 22.3763 9.97884 22.5039 9.72363C22.6361 9.46387 22.7386 9.16992 22.8115 8.8418C22.8844 8.50911 22.9209 8.16504 22.9209 7.80957C22.9209 7.59082 22.9004 7.38346 22.8594 7.1875C22.8229 6.99154 22.7637 6.82064 22.6816 6.6748C22.5996 6.52897 22.4925 6.41276 22.3604 6.32617C22.2327 6.23958 22.0778 6.19629 21.8955 6.19629C21.5993 6.19629 21.3281 6.28288 21.082 6.45605C20.8359 6.62923 20.6286 6.85026 20.46 7.11914L20.2344 9.77148ZM17.6914 12.335C17.6276 12.3486 17.5775 12.3555 17.541 12.3555C17.3952 12.3555 17.3223 12.2689 17.3223 12.0957C17.3223 12.0729 17.3223 12.0501 17.3223 12.0273C17.3268 12.0046 17.3314 11.9795 17.3359 11.9521L18.1289 2.2793C18.1289 2.26562 18.1289 2.25195 18.1289 2.23828C18.1335 2.22461 18.1357 2.21322 18.1357 2.2041C18.1357 2.18587 18.1335 2.16992 18.1289 2.15625C18.1289 2.14258 18.1289 2.13118 18.1289 2.12207C18.1289 2.08105 18.1426 2.04915 18.1699 2.02637C18.2018 1.99902 18.2793 1.9694 18.4023 1.9375L20.3232 1.47949C20.3734 1.47038 20.4395 1.44987 20.5215 1.41797C20.6035 1.38607 20.6833 1.37012 20.7607 1.37012C20.82 1.37012 20.8747 1.38379 20.9248 1.41113C20.9795 1.43848 21.0068 1.49089 21.0068 1.56836C21.0068 1.57747 21.0046 1.58659 21 1.5957C21 1.60482 21 1.61393 21 1.62305C20.9954 1.64583 20.984 1.74609 20.9658 1.92383C20.9476 2.10156 20.9271 2.31803 20.9043 2.57324C20.8815 2.82389 20.8564 3.09505 20.8291 3.38672C20.8018 3.67383 20.7767 3.94499 20.7539 4.2002C20.7311 4.45085 20.7106 4.66504 20.6924 4.84277C20.6742 5.02051 20.6628 5.12077 20.6582 5.14355C20.9909 4.9248 21.335 4.74251 21.6904 4.59668C22.0459 4.44629 22.4014 4.37109 22.7568 4.37109C23.2262 4.37109 23.6318 4.46908 23.9736 4.66504C24.3154 4.85645 24.598 5.11393 24.8213 5.4375C25.0446 5.75651 25.2087 6.12565 25.3135 6.54492C25.4229 6.96419 25.4775 7.39714 25.4775 7.84375C25.4775 8.20378 25.4434 8.56608 25.375 8.93066C25.3112 9.29069 25.2155 9.63704 25.0879 9.96973C24.9648 10.3024 24.8076 10.6146 24.6162 10.9062C24.4294 11.1979 24.2129 11.4508 23.9668 11.665C23.7253 11.8792 23.4541 12.0479 23.1533 12.1709C22.8525 12.2939 22.5267 12.3555 22.1758 12.3555C21.752 12.3555 21.3646 12.262 21.0137 12.0752C20.6628 11.8883 20.3369 11.6468 20.0361 11.3506C20.027 11.46 20.0202 11.5465 20.0156 11.6104C20.0111 11.6742 19.9951 11.7243 19.9678 11.7607C19.945 11.7926 19.9085 11.82 19.8584 11.8428C19.8083 11.861 19.7331 11.8815 19.6328 11.9043C19.5827 11.918 19.4938 11.9408 19.3662 11.9727C19.2432 12 19.0928 12.0319 18.915 12.0684C18.7419 12.1094 18.5482 12.1527 18.334 12.1982C18.1243 12.2438 17.9102 12.2894 17.6914 12.335ZM29.2578 9.77148C29.3034 9.86263 29.3672 9.95605 29.4492 10.0518C29.5358 10.1429 29.6338 10.2272 29.7432 10.3047C29.8571 10.3822 29.9801 10.446 30.1123 10.4961C30.2445 10.5417 30.3812 10.5645 30.5225 10.5645C30.7184 10.5645 30.903 10.4893 31.0762 10.3389C31.2493 10.1839 31.3997 9.97884 31.5273 9.72363C31.6595 9.46387 31.762 9.16992 31.835 8.8418C31.9079 8.50911 31.9443 8.16504 31.9443 7.80957C31.9443 7.59082 31.9238 7.38346 31.8828 7.1875C31.8464 6.99154 31.7871 6.82064 31.7051 6.6748C31.623 6.52897 31.516 6.41276 31.3838 6.32617C31.2562 6.23958 31.1012 6.19629 30.9189 6.19629C30.6227 6.19629 30.3516 6.28288 30.1055 6.45605C29.8594 6.62923 29.652 6.85026 29.4834 7.11914L29.2578 9.77148ZM26.7148 12.335C26.651 12.3486 26.6009 12.3555 26.5645 12.3555C26.4186 12.3555 26.3457 12.2689 26.3457 12.0957C26.3457 12.0729 26.3457 12.0501 26.3457 12.0273C26.3503 12.0046 26.3548 11.9795 26.3594 11.9521L27.1523 2.2793C27.1523 2.26562 27.1523 2.25195 27.1523 2.23828C27.1569 2.22461 27.1592 2.21322 27.1592 2.2041C27.1592 2.18587 27.1569 2.16992 27.1523 2.15625C27.1523 2.14258 27.1523 2.13118 27.1523 2.12207C27.1523 2.08105 27.166 2.04915 27.1934 2.02637C27.2253 1.99902 27.3027 1.9694 27.4258 1.9375L29.3467 1.47949C29.3968 1.47038 29.4629 1.44987 29.5449 1.41797C29.627 1.38607 29.7067 1.37012 29.7842 1.37012C29.8434 1.37012 29.8981 1.38379 29.9482 1.41113C30.0029 1.43848 30.0303 1.49089 30.0303 1.56836C30.0303 1.57747 30.028 1.58659 30.0234 1.5957C30.0234 1.60482 30.0234 1.61393 30.0234 1.62305C30.0189 1.64583 30.0075 1.74609 29.9893 1.92383C29.971 2.10156 29.9505 2.31803 29.9277 2.57324C29.9049 2.82389 29.8799 3.09505 29.8525 3.38672C29.8252 3.67383 29.8001 3.94499 29.7773 4.2002C29.7546 4.45085 29.734 4.66504 29.7158 4.84277C29.6976 5.02051 29.6862 5.12077 29.6816 5.14355C30.0143 4.9248 30.3584 4.74251 30.7139 4.59668C31.0693 4.44629 31.4248 4.37109 31.7803 4.37109C32.2497 4.37109 32.6553 4.46908 32.9971 4.66504C33.3389 4.85645 33.6214 5.11393 33.8447 5.4375C34.068 5.75651 34.2321 6.12565 34.3369 6.54492C34.4463 6.96419 34.501 7.39714 34.501 7.84375C34.501 8.20378 34.4668 8.56608 34.3984 8.93066C34.3346 9.29069 34.2389 9.63704 34.1113 9.96973C33.9883 10.3024 33.8311 10.6146 33.6396 10.9062C33.4528 11.1979 33.2363 11.4508 32.9902 11.665C32.7487 11.8792 32.4775 12.0479 32.1768 12.1709C31.876 12.2939 31.5501 12.3555 31.1992 12.3555C30.7754 12.3555 30.388 12.262 30.0371 12.0752C29.6862 11.8883 29.3604 11.6468 29.0596 11.3506C29.0505 11.46 29.0436 11.5465 29.0391 11.6104C29.0345 11.6742 29.0186 11.7243 28.9912 11.7607C28.9684 11.7926 28.932 11.82 28.8818 11.8428C28.8317 11.861 28.7565 11.8815 28.6562 11.9043C28.6061 11.918 28.5173 11.9408 28.3896 11.9727C28.2666 12 28.1162 12.0319 27.9385 12.0684C27.7653 12.1094 27.5716 12.1527 27.3574 12.1982C27.1478 12.2438 26.9336 12.2894 26.7148 12.335ZM38.1445 15.1172C38.1354 15.1354 38.124 15.1491 38.1104 15.1582C38.1012 15.1719 38.083 15.1787 38.0557 15.1787C38.0283 15.1787 38.0078 15.1764 37.9941 15.1719C37.8301 15.1126 37.6751 15.0625 37.5293 15.0215C37.3835 14.9805 37.2376 14.9417 37.0918 14.9053C36.9505 14.8734 36.8047 14.8415 36.6543 14.8096C36.5039 14.7822 36.3444 14.7503 36.1758 14.7139C36.1302 14.7048 36.0938 14.6888 36.0664 14.666C36.0436 14.6478 36.0322 14.6136 36.0322 14.5635C36.0322 14.5498 36.0391 14.5156 36.0527 14.4609C36.071 14.4108 36.112 14.3037 36.1758 14.1396C36.2396 13.9801 36.3376 13.7454 36.4697 13.4355C36.6019 13.1302 36.7842 12.7178 37.0166 12.1982C36.9482 11.9704 36.8708 11.6969 36.7842 11.3779C36.6976 11.0589 36.6042 10.7103 36.5039 10.332C36.4082 9.95378 36.3079 9.55501 36.2031 9.13574C36.0983 8.71191 35.9912 8.28581 35.8818 7.85742C35.777 7.42448 35.6699 6.99837 35.5605 6.5791C35.4557 6.15527 35.3532 5.75195 35.2529 5.36914C35.221 5.29622 35.2028 5.23698 35.1982 5.19141C35.1937 5.14128 35.1914 5.10026 35.1914 5.06836C35.1914 5.00456 35.2279 4.96354 35.3008 4.94531C35.6562 4.86784 36.0254 4.78809 36.4082 4.70605C36.791 4.61947 37.1533 4.51009 37.4951 4.37793C37.5088 4.37337 37.5293 4.37109 37.5566 4.37109C37.6159 4.37109 37.6478 4.39388 37.6523 4.43945L38.4863 9.0332C38.5046 8.97852 38.5387 8.88053 38.5889 8.73926C38.6436 8.59342 38.7051 8.42025 38.7734 8.21973C38.8464 8.01921 38.9261 7.79818 39.0127 7.55664C39.0993 7.3151 39.1882 7.06901 39.2793 6.81836C39.3704 6.56771 39.4593 6.31934 39.5459 6.07324C39.637 5.82259 39.7214 5.59017 39.7988 5.37598C39.8763 5.16178 39.9424 4.97266 39.9971 4.80859C40.0563 4.64453 40.1019 4.52148 40.1338 4.43945C40.152 4.39388 40.1862 4.37109 40.2363 4.37109C40.25 4.37109 40.2591 4.37337 40.2637 4.37793C40.2682 4.37793 40.2773 4.37793 40.291 4.37793C40.6328 4.51009 40.9837 4.61947 41.3438 4.70605C41.7038 4.78809 42.0615 4.86784 42.417 4.94531C42.5036 4.96354 42.5469 5.01367 42.5469 5.0957C42.5469 5.15495 42.5195 5.24609 42.4648 5.36914L39.6484 11.7334L38.1445 15.1172Z" fill="#111111"/>
</svg>
