<svg width="97" height="34" viewBox="0 0 97 34" fill="none" xmlns="http://www.w3.org/2000/svg">
<path d="M23.2344 4.79688C23.2865 4.60938 23.3438 4.45833 23.4062 4.34375C23.4688 4.21875 23.6094 4.13021 23.8281 4.07812L28.4375 3.01562C28.4583 3.01562 28.4844 3.01042 28.5156 3C28.5469 2.98958 28.5729 2.98438 28.5938 2.98438C28.7396 2.98438 28.8385 3.04688 28.8906 3.17188C28.9531 3.29688 28.9844 3.41667 28.9844 3.53125C28.9844 3.55208 28.9792 3.59375 28.9688 3.65625C28.9688 3.71875 28.9635 3.76042 28.9531 3.78125L22.4844 23.4375C22.3177 23.8646 22.1771 24.2135 22.0625 24.4844C21.9583 24.7448 21.849 24.9635 21.7344 25.1406C21.6302 25.3073 21.5052 25.4479 21.3594 25.5625C21.224 25.6771 21.0365 25.7917 20.7969 25.9062C20.5677 26.0208 20.276 26.151 19.9219 26.2969C19.5677 26.4531 19.1198 26.6615 18.5781 26.9219C18.3906 27.0156 18.2448 27.0625 18.1406 27.0625C17.974 27.0625 17.849 27 17.7656 26.875C17.6823 26.75 17.6146 26.6094 17.5625 26.4531L14.8906 16.9375L11.5469 23.8281C11.4948 23.9531 11.375 24.1198 11.1875 24.3281C11 24.5365 10.7865 24.75 10.5469 24.9688C10.3177 25.1875 10.0833 25.401 9.84375 25.6094C9.61458 25.8073 9.42708 25.9688 9.28125 26.0938C9.14583 26.2083 9 26.3229 8.84375 26.4375C8.69792 26.5521 8.54688 26.6562 8.39062 26.75C8.23438 26.8438 8.08333 26.9167 7.9375 26.9688C7.80208 27.0312 7.67188 27.0625 7.54688 27.0625C7.27604 27.0625 7.09896 26.9115 7.01562 26.6094L0.953125 5.23438C0.932292 5.15104 0.90625 5.06771 0.875 4.98438C0.854167 4.90104 0.84375 4.82292 0.84375 4.75C0.84375 4.48958 0.90625 4.27083 1.03125 4.09375C1.15625 3.91667 1.375 3.76562 1.6875 3.64062C2 3.51562 2.41667 3.41667 2.9375 3.34375C3.45833 3.26042 4.11979 3.19271 4.92188 3.14062C5.29688 3.08854 5.60938 3.05208 5.85938 3.03125C6.11979 3.01042 6.33854 3 6.51562 3C6.81771 3 7.01562 3.04688 7.10938 3.14062C7.20312 3.23438 7.28646 3.39062 7.35938 3.60938L10.5781 16L13.25 11.4062L12.1719 6.70312C12.1094 6.45312 12.0833 6.26562 12.0938 6.14062C12.0938 5.90104 12.1562 5.70833 12.2812 5.5625C12.4062 5.41667 12.6146 5.29688 12.9062 5.20312C13.1979 5.10938 13.5781 5.02604 14.0469 4.95312C14.526 4.88021 15.1094 4.79688 15.7969 4.70312C16.099 4.66146 16.3594 4.63021 16.5781 4.60938C16.7969 4.58854 16.9844 4.57812 17.1406 4.57812C17.4531 4.57812 17.6667 4.625 17.7812 4.71875C17.8958 4.8125 17.9792 4.96354 18.0312 5.17188L20.1562 14.7969L23.2344 4.79688Z" fill="#90CFF1"/>
<path d="M29.5 19.375C29.6354 17.9479 29.7708 16.5365 29.9062 15.1406C30.0417 13.7448 30.1615 12.3125 30.2656 10.8438C30.2865 10.5 30.3177 10.2656 30.3594 10.1406C30.4115 10.0052 30.5312 9.91667 30.7188 9.875C31.6042 9.69792 32.5312 9.51562 33.5 9.32812C34.4688 9.13021 35.4062 8.88021 36.3125 8.57812C36.3438 8.56771 36.3906 8.5625 36.4531 8.5625C36.5677 8.5625 36.625 8.60417 36.625 8.6875L35.2188 23.9062C35.1875 24.25 35.151 24.4896 35.1094 24.625C35.0677 24.75 34.9531 24.8333 34.7656 24.875C33.8802 25.1458 32.9844 25.4479 32.0781 25.7812C31.1719 26.1146 30.2135 26.4531 29.2031 26.7969C29.1719 26.8073 29.125 26.8125 29.0625 26.8125C28.9479 26.8125 28.8906 26.7604 28.8906 26.6562C28.8906 26.6458 28.901 26.5052 28.9219 26.2344C28.9427 25.9635 28.9688 25.6146 29 25.1875C29.0417 24.7604 29.0833 24.2812 29.125 23.75C29.1667 23.2188 29.2083 22.6875 29.25 22.1562C29.3021 21.625 29.349 21.1146 29.3906 20.625C29.4323 20.1354 29.4688 19.7188 29.5 19.375ZM30.6719 6.90625C30.7031 6.45833 30.724 6.11458 30.7344 5.875C30.7552 5.63542 30.7708 5.45833 30.7812 5.34375C30.7917 5.21875 30.7969 5.14062 30.7969 5.10938C30.7969 5.07812 30.7969 5.05729 30.7969 5.04688C30.8073 5.02604 30.8125 4.99479 30.8125 4.95312C30.8229 4.90104 30.8333 4.80208 30.8438 4.65625C30.8542 4.5 30.8698 4.27604 30.8906 3.98438C30.9115 3.69271 30.9427 3.29167 30.9844 2.78125C31.0052 2.4375 31.0365 2.20312 31.0781 2.07812C31.1302 1.94271 31.25 1.85417 31.4375 1.8125C32.3229 1.63542 33.25 1.45312 34.2188 1.26562C35.1875 1.06771 36.125 0.817708 37.0312 0.515625C37.0625 0.505208 37.1094 0.5 37.1719 0.5C37.2031 0.5625 37.2448 0.604167 37.2969 0.625L37.3438 0.65625L37 4.9375C36.9688 5.28125 36.9271 5.52083 36.875 5.65625C36.8333 5.79167 36.724 5.875 36.5469 5.90625C35.6615 6.07292 34.7656 6.25521 33.8594 6.45312C32.9531 6.65104 31.9948 6.84896 30.9844 7.04688C30.9531 7.05729 30.9062 7.0625 30.8438 7.0625C30.7292 7.0625 30.6719 7.01042 30.6719 6.90625Z" fill="#FBAE8F"/>
<path d="M45.25 20.9062C45.3542 21.1146 45.5 21.3281 45.6875 21.5469C45.8854 21.7552 46.1094 21.9479 46.3594 22.125C46.6198 22.3021 46.901 22.4479 47.2031 22.5625C47.5052 22.6667 47.8177 22.7188 48.1406 22.7188C48.5885 22.7188 49.0104 22.5469 49.4062 22.2031C49.8021 21.849 50.1458 21.3802 50.4375 20.7969C50.7396 20.2031 50.974 19.5312 51.1406 18.7812C51.3073 18.0208 51.3906 17.2344 51.3906 16.4219C51.3906 15.9219 51.3438 15.4479 51.25 15C51.1667 14.5521 51.0312 14.1615 50.8438 13.8281C50.6562 13.4948 50.4115 13.2292 50.1094 13.0312C49.8177 12.8333 49.4635 12.7344 49.0469 12.7344C48.3698 12.7344 47.75 12.9323 47.1875 13.3281C46.625 13.724 46.151 14.2292 45.7656 14.8438L45.25 20.9062ZM39.4375 26.7656C39.2917 26.7969 39.1771 26.8125 39.0938 26.8125C38.7604 26.8125 38.5938 26.6146 38.5938 26.2188C38.5938 26.1667 38.5938 26.1146 38.5938 26.0625C38.6042 26.0104 38.6146 25.9531 38.625 25.8906L40.4375 3.78125C40.4375 3.75 40.4375 3.71875 40.4375 3.6875C40.4479 3.65625 40.4531 3.63021 40.4531 3.60938C40.4531 3.56771 40.4479 3.53125 40.4375 3.5C40.4375 3.46875 40.4375 3.44271 40.4375 3.42188C40.4375 3.32812 40.4688 3.25521 40.5312 3.20312C40.6042 3.14062 40.7812 3.07292 41.0625 3L45.4531 1.95312C45.5677 1.93229 45.7188 1.88542 45.9062 1.8125C46.0938 1.73958 46.276 1.70312 46.4531 1.70312C46.5885 1.70312 46.7135 1.73438 46.8281 1.79688C46.9531 1.85938 47.0156 1.97917 47.0156 2.15625C47.0156 2.17708 47.0104 2.19792 47 2.21875C47 2.23958 47 2.26042 47 2.28125C46.9896 2.33333 46.9635 2.5625 46.9219 2.96875C46.8802 3.375 46.8333 3.86979 46.7812 4.45312C46.7292 5.02604 46.6719 5.64583 46.6094 6.3125C46.5469 6.96875 46.4896 7.58854 46.4375 8.17188C46.3854 8.74479 46.3385 9.23438 46.2969 9.64062C46.2552 10.0469 46.2292 10.276 46.2188 10.3281C46.9792 9.82812 47.7656 9.41146 48.5781 9.07812C49.3906 8.73438 50.2031 8.5625 51.0156 8.5625C52.0885 8.5625 53.0156 8.78646 53.7969 9.23438C54.5781 9.67188 55.224 10.2604 55.7344 11C56.2448 11.7292 56.6198 12.5729 56.8594 13.5312C57.1094 14.4896 57.2344 15.4792 57.2344 16.5C57.2344 17.3229 57.1562 18.151 57 18.9844C56.8542 19.8073 56.6354 20.599 56.3438 21.3594C56.0625 22.1198 55.7031 22.8333 55.2656 23.5C54.8385 24.1667 54.3438 24.7448 53.7812 25.2344C53.2292 25.724 52.6094 26.1094 51.9219 26.3906C51.2344 26.6719 50.4896 26.8125 49.6875 26.8125C48.7188 26.8125 47.8333 26.599 47.0312 26.1719C46.2292 25.7448 45.4844 25.1927 44.7969 24.5156C44.776 24.7656 44.7604 24.9635 44.75 25.1094C44.7396 25.2552 44.7031 25.3698 44.6406 25.4531C44.5885 25.526 44.5052 25.5885 44.3906 25.6406C44.276 25.6823 44.1042 25.7292 43.875 25.7812C43.7604 25.8125 43.5573 25.8646 43.2656 25.9375C42.9844 26 42.6406 26.0729 42.2344 26.1562C41.8385 26.25 41.3958 26.349 40.9062 26.4531C40.4271 26.5573 39.9375 26.6615 39.4375 26.7656ZM65.875 20.9062C65.9792 21.1146 66.125 21.3281 66.3125 21.5469C66.5104 21.7552 66.7344 21.9479 66.9844 22.125C67.2448 22.3021 67.526 22.4479 67.8281 22.5625C68.1302 22.6667 68.4427 22.7188 68.7656 22.7188C69.2135 22.7188 69.6354 22.5469 70.0312 22.2031C70.4271 21.849 70.7708 21.3802 71.0625 20.7969C71.3646 20.2031 71.599 19.5312 71.7656 18.7812C71.9323 18.0208 72.0156 17.2344 72.0156 16.4219C72.0156 15.9219 71.9688 15.4479 71.875 15C71.7917 14.5521 71.6562 14.1615 71.4688 13.8281C71.2812 13.4948 71.0365 13.2292 70.7344 13.0312C70.4427 12.8333 70.0885 12.7344 69.6719 12.7344C68.9948 12.7344 68.375 12.9323 67.8125 13.3281C67.25 13.724 66.776 14.2292 66.3906 14.8438L65.875 20.9062ZM60.0625 26.7656C59.9167 26.7969 59.8021 26.8125 59.7188 26.8125C59.3854 26.8125 59.2188 26.6146 59.2188 26.2188C59.2188 26.1667 59.2188 26.1146 59.2188 26.0625C59.2292 26.0104 59.2396 25.9531 59.25 25.8906L61.0625 3.78125C61.0625 3.75 61.0625 3.71875 61.0625 3.6875C61.0729 3.65625 61.0781 3.63021 61.0781 3.60938C61.0781 3.56771 61.0729 3.53125 61.0625 3.5C61.0625 3.46875 61.0625 3.44271 61.0625 3.42188C61.0625 3.32812 61.0938 3.25521 61.1562 3.20312C61.2292 3.14062 61.4062 3.07292 61.6875 3L66.0781 1.95312C66.1927 1.93229 66.3438 1.88542 66.5312 1.8125C66.7188 1.73958 66.901 1.70312 67.0781 1.70312C67.2135 1.70312 67.3385 1.73438 67.4531 1.79688C67.5781 1.85938 67.6406 1.97917 67.6406 2.15625C67.6406 2.17708 67.6354 2.19792 67.625 2.21875C67.625 2.23958 67.625 2.26042 67.625 2.28125C67.6146 2.33333 67.5885 2.5625 67.5469 2.96875C67.5052 3.375 67.4583 3.86979 67.4062 4.45312C67.3542 5.02604 67.2969 5.64583 67.2344 6.3125C67.1719 6.96875 67.1146 7.58854 67.0625 8.17188C67.0104 8.74479 66.9635 9.23438 66.9219 9.64062C66.8802 10.0469 66.8542 10.276 66.8438 10.3281C67.6042 9.82812 68.3906 9.41146 69.2031 9.07812C70.0156 8.73438 70.8281 8.5625 71.6406 8.5625C72.7135 8.5625 73.6406 8.78646 74.4219 9.23438C75.2031 9.67188 75.849 10.2604 76.3594 11C76.8698 11.7292 77.2448 12.5729 77.4844 13.5312C77.7344 14.4896 77.8594 15.4792 77.8594 16.5C77.8594 17.3229 77.7812 18.151 77.625 18.9844C77.4792 19.8073 77.2604 20.599 76.9688 21.3594C76.6875 22.1198 76.3281 22.8333 75.8906 23.5C75.4635 24.1667 74.9688 24.7448 74.4062 25.2344C73.8542 25.724 73.2344 26.1094 72.5469 26.3906C71.8594 26.6719 71.1146 26.8125 70.3125 26.8125C69.3438 26.8125 68.4583 26.599 67.6562 26.1719C66.8542 25.7448 66.1094 25.1927 65.4219 24.5156C65.401 24.7656 65.3854 24.9635 65.375 25.1094C65.3646 25.2552 65.3281 25.3698 65.2656 25.4531C65.2135 25.526 65.1302 25.5885 65.0156 25.6406C64.901 25.6823 64.7292 25.7292 64.5 25.7812C64.3854 25.8125 64.1823 25.8646 63.8906 25.9375C63.6094 26 63.2656 26.0729 62.8594 26.1562C62.4635 26.25 62.0208 26.349 61.5312 26.4531C61.0521 26.5573 60.5625 26.6615 60.0625 26.7656ZM86.1875 33.125C86.1667 33.1667 86.1406 33.1979 86.1094 33.2188C86.0885 33.25 86.0469 33.2656 85.9844 33.2656C85.9219 33.2656 85.875 33.2604 85.8438 33.25C85.4688 33.1146 85.1146 33 84.7812 32.9062C84.4479 32.8125 84.1146 32.724 83.7812 32.6406C83.4583 32.5677 83.125 32.4948 82.7812 32.4219C82.4375 32.3594 82.0729 32.2865 81.6875 32.2031C81.5833 32.1823 81.5 32.1458 81.4375 32.0938C81.3854 32.0521 81.3594 31.974 81.3594 31.8594C81.3594 31.8281 81.375 31.75 81.4062 31.625C81.4479 31.5104 81.5417 31.2656 81.6875 30.8906C81.8333 30.526 82.0573 29.9896 82.3594 29.2812C82.6615 28.5833 83.0781 27.6406 83.6094 26.4531C83.4531 25.9323 83.276 25.3073 83.0781 24.5781C82.8802 23.849 82.6667 23.0521 82.4375 22.1875C82.2188 21.3229 81.9896 20.4115 81.75 19.4531C81.5104 18.4844 81.2656 17.5104 81.0156 16.5312C80.776 15.5417 80.5312 14.5677 80.2812 13.6094C80.0417 12.6406 79.8073 11.7188 79.5781 10.8438C79.5052 10.6771 79.4635 10.5417 79.4531 10.4375C79.4427 10.3229 79.4375 10.2292 79.4375 10.1562C79.4375 10.0104 79.5208 9.91667 79.6875 9.875C80.5 9.69792 81.3438 9.51562 82.2188 9.32812C83.0938 9.13021 83.9219 8.88021 84.7031 8.57812C84.7344 8.56771 84.7812 8.5625 84.8438 8.5625C84.9792 8.5625 85.0521 8.61458 85.0625 8.71875L86.9688 19.2188C87.0104 19.0938 87.0885 18.8698 87.2031 18.5469C87.3281 18.2135 87.4688 17.8177 87.625 17.3594C87.7917 16.901 87.974 16.3958 88.1719 15.8438C88.3698 15.2917 88.5729 14.7292 88.7812 14.1562C88.9896 13.5833 89.1927 13.0156 89.3906 12.4531C89.599 11.8802 89.7917 11.349 89.9688 10.8594C90.1458 10.3698 90.2969 9.9375 90.4219 9.5625C90.5573 9.1875 90.6615 8.90625 90.7344 8.71875C90.776 8.61458 90.8542 8.5625 90.9688 8.5625C91 8.5625 91.0208 8.56771 91.0312 8.57812C91.0417 8.57812 91.0625 8.57812 91.0938 8.57812C91.875 8.88021 92.6771 9.13021 93.5 9.32812C94.3229 9.51562 95.1406 9.69792 95.9531 9.875C96.151 9.91667 96.25 10.0312 96.25 10.2188C96.25 10.3542 96.1875 10.5625 96.0625 10.8438L89.625 25.3906L86.1875 33.125Z" fill="#353435"/>
</svg>
